STARTFONT 2.1
FONT -FontForge-Righteous-Book-R-Normal--28-280-72-72-P-151-ISO10646-1
SIZE 28 72 72
FONTBOUNDINGBOX 35 35 -4 -7
COMMENT "Generated by fontforge, http://fontforge.sourceforge.net"
COMMENT "Copyright (c) 2011 by Brian J. Bonislawsky DBA Astigmatic (AOETI) (astigma@astigmatic.com), with ReservedFont Name "Righteous""
STARTPROPERTIES 39
FOUNDRY "FontForge"
FAMILY_NAME "Righteous"
WEIGHT_NAME "Book"
SLANT "R"
SETWIDTH_NAME "Normal"
ADD_STYLE_NAME ""
PIXEL_SIZE 28
POINT_SIZE 280
RESOLUTION_X 72
RESOLUTION_Y 72
SPACING "P"
AVERAGE_WIDTH 151
CHARSET_REGISTRY "ISO10646"
CHARSET_ENCODING "1"
FONTNAME_REGISTRY ""
CHARSET_COLLECTIONS "ISO8859-2 ISO8859-9 ISO8859-4 ISO10646-1"
FONT_NAME "Righteous-Regular"
FACE_NAME "Righteous"
COPYRIGHT "Copyright (c) 2011 by Brian J. Bonislawsky DBA Astigmatic (AOETI) (astigma@astigmatic.com), with ReservedFont Name "Righteous""
FONT_VERSION "1.000"
FONT_ASCENT 22
FONT_DESCENT 6
UNDERLINE_POSITION -4
UNDERLINE_THICKNESS 1
X_HEIGHT 14
CAP_HEIGHT 19
RAW_ASCENT 799
RAW_DESCENT 200
NORM_SPACE 8
RELATIVE_WEIGHT 40
RELATIVE_SETWIDTH 50
SUPERSCRIPT_X 0
SUPERSCRIPT_Y 13
SUPERSCRIPT_SIZE 18
SUBSCRIPT_X 0
SUBSCRIPT_Y 3
SUBSCRIPT_SIZE 18
AVG_LOWERCASE_WIDTH 150
AVG_UPPERCASE_WIDTH 178
ENDPROPERTIES
CHARS 372
STARTCHAR space
ENCODING 32
SWIDTH 279 0
DWIDTH 8 0
BBX 1 1 0 0
BITMAP
00
ENDCHAR
STARTCHAR exclam
ENCODING 33
SWIDTH 274 0
DWIDTH 8 0
BBX 5 21 1 -1
BITMAP
F8
78
78
78
78
78
78
78
78
78
78
78
78
70
70
00
30
78
78
78
30
ENDCHAR
STARTCHAR quotedbl
ENCODING 34
SWIDTH 409 0
DWIDTH 11 0
BBX 9 7 1 13
BITMAP
F780
F780
7780
7780
7380
7380
7380
ENDCHAR
STARTCHAR numbersign
ENCODING 35
SWIDTH 561 0
DWIDTH 16 0
BBX 14 13 1 3
BITMAP
0F78
0E70
0E7C
3FFC
3FF8
1CE0
1CE0
7FF0
FFF0
FFF0
39C0
7BC0
7380
ENDCHAR
STARTCHAR dollar
ENCODING 36
SWIDTH 458 0
DWIDTH 13 0
BBX 11 20 1 0
BITMAP
0E00
0E00
0E00
0E00
3FC0
7FC0
FFC0
E000
F000
7FC0
7FC0
0FE0
00E0
FFE0
FFC0
FF80
0E00
0E00
0E00
0E00
ENDCHAR
STARTCHAR percent
ENCODING 37
SWIDTH 685 0
DWIDTH 19 0
BBX 17 20 1 0
BITMAP
3C0E00
7E0E00
FF1C00
E71C00
E73800
E73800
E77000
FF7000
7EE000
3CE000
01CC00
03BF00
03BF80
077380
077180
0E7180
0E7380
1C3B80
1C3F80
381F00
ENDCHAR
STARTCHAR ampersand
ENCODING 38
SWIDTH 485 0
DWIDTH 14 0
BBX 10 20 2 0
BITMAP
0E00
0E00
0E00
3FC0
7FC0
FFC0
E000
E000
E000
FF00
7F00
FF00
E000
E000
E000
FFC0
7FC0
1FC0
0E00
0E00
ENDCHAR
STARTCHAR quotesingle
ENCODING 39
SWIDTH 238 0
DWIDTH 7 0
BBX 4 7 1 13
BITMAP
F0
F0
70
70
70
70
70
ENDCHAR
STARTCHAR parenleft
ENCODING 40
SWIDTH 351 0
DWIDTH 10 0
BBX 8 25 1 -3
BITMAP
1F
1E
3C
3C
7C
78
78
F0
F0
F0
F0
F0
F0
F0
F0
F0
78
78
78
7C
3C
3E
1E
1F
0F
ENDCHAR
STARTCHAR parenright
ENCODING 41
SWIDTH 351 0
DWIDTH 10 0
BBX 8 25 1 -3
BITMAP
F0
78
7C
3C
3E
1E
1E
1E
0F
0F
0F
0F
0F
0F
0F
1E
1E
1E
1E
3C
3C
7C
78
F0
F0
ENDCHAR
STARTCHAR asterisk
ENCODING 42
SWIDTH 589 0
DWIDTH 17 0
BBX 14 14 1 9
BITMAP
0780
0780
0780
7798
7FFC
FFFC
7FF8
1FE0
0FC0
1FE0
3FF0
7EF8
3C70
1820
ENDCHAR
STARTCHAR plus
ENCODING 43
SWIDTH 485 0
DWIDTH 14 0
BBX 12 12 1 4
BITMAP
0F00
0F00
0F00
0F00
FFF0
FFF0
FFF0
FFF0
0F00
0F00
0F00
0F00
ENDCHAR
STARTCHAR comma
ENCODING 44
SWIDTH 264 0
DWIDTH 7 0
BBX 5 7 1 -3
BITMAP
30
78
F8
78
78
30
70
ENDCHAR
STARTCHAR hyphen
ENCODING 45
SWIDTH 528 0
DWIDTH 15 0
BBX 11 4 2 8
BITMAP
FFE0
FFE0
FFE0
FFE0
ENDCHAR
STARTCHAR period
ENCODING 46
SWIDTH 263 0
DWIDTH 7 0
BBX 5 5 1 -1
BITMAP
30
78
F8
78
70
ENDCHAR
STARTCHAR slash
ENCODING 47
SWIDTH 490 0
DWIDTH 14 0
BBX 12 20 1 0
BITMAP
00F0
01E0
01E0
01E0
03C0
03C0
0780
0780
0780
0F00
0F00
1E00
1E00
3E00
3C00
3C00
7800
7800
F000
F000
ENDCHAR
STARTCHAR zero
ENCODING 48
SWIDTH 642 0
DWIDTH 18 0
BBX 16 20 1 0
BITMAP
03C0
1FF8
3FFC
3FFC
7C3E
781E
F00E
F00F
F00F
F00F
F00F
F00F
F00F
F00F
781E
781E
7E7E
3FFC
1FF8
0FF0
ENDCHAR
STARTCHAR one
ENCODING 49
SWIDTH 317 0
DWIDTH 9 0
BBX 6 20 1 0
BITMAP
FC
FC
FC
FC
3C
3C
3C
3C
3C
3C
3C
3C
3C
3C
3C
3C
3C
3C
3C
3C
ENDCHAR
STARTCHAR two
ENCODING 50
SWIDTH 570 0
DWIDTH 16 0
BBX 14 20 1 0
BITMAP
7F80
7FE0
7FF8
7FF8
007C
003C
003C
003C
07FC
3FF8
7FF0
7FE0
F800
F000
F000
F000
FFF8
FFF8
FFF8
FFF8
ENDCHAR
STARTCHAR three
ENCODING 51
SWIDTH 586 0
DWIDTH 16 0
BBX 14 20 1 0
BITMAP
FF80
FFF0
FFF8
FFF8
007C
003C
003C
003C
1FFC
1FF8
1FF8
1FF8
007C
003C
003C
003C
FFFC
FFF8
FFF0
FFE0
ENDCHAR
STARTCHAR four
ENCODING 52
SWIDTH 630 0
DWIDTH 18 0
BBX 15 20 1 0
BITMAP
3C00
3C00
3C3C
383C
783C
783C
783C
783C
783C
783C
703C
F03C
FFFE
FFFE
FFFE
FFFE
003C
003C
003C
003C
ENDCHAR
STARTCHAR five
ENCODING 53
SWIDTH 585 0
DWIDTH 16 0
BBX 14 20 1 0
BITMAP
7FFC
7FFC
7FFC
7FFC
7800
7800
7800
7800
7FE0
7FF8
FFFC
FFFC
003C
003C
003C
003C
FFFC
FFF8
FFF0
FFE0
ENDCHAR
STARTCHAR six
ENCODING 54
SWIDTH 615 0
DWIDTH 17 0
BBX 15 21 1 -1
BITMAP
07E0
0F80
1F00
1E00
3E00
3DC0
7FF0
7FF8
7FFC
FC3E
F81E
F01E
F01E
F01E
F81E
783E
7EFC
3FFC
1FF8
0FF0
0100
ENDCHAR
STARTCHAR seven
ENCODING 55
SWIDTH 516 0
DWIDTH 14 0
BBX 13 20 1 0
BITMAP
FFF8
FFF8
FFF8
FFF0
00F0
00F0
01E0
01E0
01E0
03C0
03C0
07C0
0780
0780
0F80
0F00
0F00
1F00
1E00
1E00
ENDCHAR
STARTCHAR eight
ENCODING 56
SWIDTH 618 0
DWIDTH 17 0
BBX 15 20 1 0
BITMAP
0FE0
1FF0
3FF8
7EFC
783C
783C
783C
3C7C
3FF8
1FF0
3FFC
7C7E
F81E
F01E
F01E
F01E
F83E
7FFC
3FF8
1FF0
ENDCHAR
STARTCHAR nine
ENCODING 57
SWIDTH 616 0
DWIDTH 17 0
BBX 15 20 1 0
BITMAP
0FE0
1FF0
3FF8
7FFC
783E
F03E
F01E
F01E
F01E
F01E
F83E
7FFE
7FFE
3FFC
0FBC
0078
00F8
01F0
03E0
07C0
ENDCHAR
STARTCHAR colon
ENCODING 58
SWIDTH 276 0
DWIDTH 8 0
BBX 4 12 2 -1
BITMAP
F0
F0
F0
E0
00
00
00
60
F0
F0
F0
60
ENDCHAR
STARTCHAR semicolon
ENCODING 59
SWIDTH 276 0
DWIDTH 8 0
BBX 4 14 2 -3
BITMAP
F0
F0
F0
E0
00
00
00
60
F0
F0
F0
F0
70
60
ENDCHAR
STARTCHAR less
ENCODING 60
SWIDTH 478 0
DWIDTH 13 0
BBX 11 16 1 3
BITMAP
0080
01C0
03E0
07C0
0F80
1F00
3E00
7C00
FC00
7E00
3F00
1F80
0FC0
07E0
03C0
0180
ENDCHAR
STARTCHAR equal
ENCODING 61
SWIDTH 539 0
DWIDTH 15 0
BBX 11 10 2 5
BITMAP
FFE0
FFE0
FFE0
FFE0
0000
0000
FFE0
FFE0
FFE0
FFE0
ENDCHAR
STARTCHAR greater
ENCODING 62
SWIDTH 478 0
DWIDTH 13 0
BBX 12 16 1 3
BITMAP
1000
3800
7C00
7E00
3F00
1F80
0FC0
07E0
03F0
07C0
0F80
3F00
7E00
FC00
7800
3000
ENDCHAR
STARTCHAR question
ENCODING 63
SWIDTH 603 0
DWIDTH 17 0
BBX 15 21 1 -1
BITMAP
FFC0
FFF0
FFFC
FFFC
003E
001E
001E
001E
00FE
03FC
07F8
0FF0
0F00
1E00
1E00
0000
0C00
1E00
1F00
1F00
0E00
ENDCHAR
STARTCHAR at
ENCODING 64
SWIDTH 629 0
DWIDTH 18 0
BBX 16 15 1 0
BITMAP
07E0
1FF8
3FFC
781E
73EE
E7E6
EFE7
EE67
EEE7
E7FE
77FE
7000
3C00
1FC0
0FC0
ENDCHAR
STARTCHAR A
ENCODING 65
SWIDTH 673 0
DWIDTH 19 0
BBX 15 20 2 0
BITMAP
0380
1FE0
3FF8
7FFC
7EFC
F83E
F01E
F01E
F01E
F01E
F01E
F01E
FFFE
FFFE
FFFE
FFFE
F01E
F01E
F01E
F01E
ENDCHAR
STARTCHAR B
ENCODING 66
SWIDTH 666 0
DWIDTH 19 0
BBX 16 20 2 0
BITMAP
FFC0
FFF8
FFFC
FFFE
F03E
F01E
F00F
F01E
FFFE
FFFC
FFFC
FFFE
F01E
F01E
F00E
F01E
FFFE
FFFC
FFFC
FFF0
ENDCHAR
STARTCHAR C
ENCODING 67
SWIDTH 640 0
DWIDTH 18 0
BBX 16 20 1 0
BITMAP
01F0
07FE
1FFF
3FFF
3F0E
7C02
F800
F000
F000
F000
F000
F000
F000
F800
7800
7E06
3FFF
1FFF
0FFF
03FC
ENDCHAR
STARTCHAR D
ENCODING 68
SWIDTH 653 0
DWIDTH 18 0
BBX 16 20 2 0
BITMAP
FE00
FFC0
FFF0
FFF8
F1FC
F07C
F03E
F01E
F01E
F00E
F00F
F01E
F01E
F01E
F03E
F0FC
FFF8
FFF0
FFE0
FF80
ENDCHAR
STARTCHAR E
ENCODING 69
SWIDTH 578 0
DWIDTH 16 0
BBX 13 20 2 0
BITMAP
FFF8
FFF8
FFF8
FFF8
F000
F000
F000
F000
FFC0
FFC0
FFC0
FFC0
F000
F000
F000
F000
FFF8
FFF8
FFF8
FFF8
ENDCHAR
STARTCHAR F
ENCODING 70
SWIDTH 562 0
DWIDTH 16 0
BBX 14 20 2 0
BITMAP
FFFC
FFFC
FFFC
FFFC
F000
F000
F000
F000
FFC0
FFC0
FFC0
FFC0
F000
F000
F000
F000
F000
F000
F000
F000
ENDCHAR
STARTCHAR G
ENCODING 71
SWIDTH 665 0
DWIDTH 19 0
BBX 16 20 1 0
BITMAP
01F0
07FE
1FFF
3FFF
3F0E
7C02
F800
F000
F000
F000
F007
F007
F007
F807
7807
7C07
3FFF
1FFF
0FFF
03FC
ENDCHAR
STARTCHAR H
ENCODING 72
SWIDTH 689 0
DWIDTH 19 0
BBX 16 20 2 0
BITMAP
F00F
F00F
F00F
F00F
F00F
F00F
F00F
F00F
FFFF
FFFF
FFFF
FFFF
F00F
F00F
F00F
F00F
F00F
F00F
F00F
F00F
ENDCHAR
STARTCHAR I
ENCODING 73
SWIDTH 270 0
DWIDTH 8 0
BBX 4 20 2 0
BITMAP
F0
F0
F0
F0
F0
F0
F0
F0
F0
F0
F0
F0
F0
F0
F0
F0
F0
F0
F0
F0
ENDCHAR
STARTCHAR J
ENCODING 74
SWIDTH 416 0
DWIDTH 12 0
BBX 10 20 0 0
BITMAP
03C0
03C0
03C0
03C0
03C0
03C0
03C0
03C0
03C0
03C0
03C0
03C0
03C0
03C0
07C0
0F80
FF80
FF00
FE00
F800
ENDCHAR
STARTCHAR K
ENCODING 75
SWIDTH 625 0
DWIDTH 18 0
BBX 15 20 2 0
BITMAP
F01E
F03E
F07C
F078
F0F0
F1F0
F3E0
F3C0
F780
FFC0
FFC0
FFE0
FDE0
FCF0
F8F0
F078
F07C
F03C
F03E
F01E
ENDCHAR
STARTCHAR L
ENCODING 76
SWIDTH 562 0
DWIDTH 16 0
BBX 14 20 2 0
BITMAP
F000
F000
F000
F000
F000
F000
F000
F000
F000
F000
F000
F000
F000
F000
F000
F000
FFFC
FFFC
FFFC
FFFC
ENDCHAR
STARTCHAR M
ENCODING 77
SWIDTH 819 0
DWIDTH 23 0
BBX 19 20 2 0
BITMAP
0F1E00
3FBF80
7FFFC0
FFFFE0
F1F1E0
F1F1E0
F0E1E0
F0E1E0
F0E1E0
F0E1E0
F0E1E0
F0E1E0
F0E1E0
F0E1E0
F0E1E0
F0E1E0
F0E1E0
F0E1E0
F0E1E0
F0E1E0
ENDCHAR
STARTCHAR N
ENCODING 78
SWIDTH 689 0
DWIDTH 19 0
BBX 16 20 2 0
BITMAP
F00F
F80F
F80F
FC0F
FC0F
FE0F
FF0F
FF0F
F78F
F78F
F3CF
F3EF
F1EF
F1FF
F0FF
F07F
F07F
F03F
F03F
F01F
ENDCHAR
STARTCHAR O
ENCODING 79
SWIDTH 777 0
DWIDTH 22 0
BBX 20 20 1 0
BITMAP
01F000
07FE00
1FFF00
3FFF80
3F0FC0
7C03E0
F801E0
F001F0
F000F0
F000F0
F000F0
F000F0
F000F0
F801E0
7803E0
7E07E0
3FFFC0
1FFF80
0FFF00
03FC00
ENDCHAR
STARTCHAR P
ENCODING 80
SWIDTH 642 0
DWIDTH 18 0
BBX 16 20 2 0
BITMAP
FF00
FFF0
FFF8
FFFC
F07E
F03E
F01E
F00E
F00F
F01E
F01E
F03E
FFFC
FFF8
FFF0
FFE0
F000
F000
F000
F000
ENDCHAR
STARTCHAR Q
ENCODING 81
SWIDTH 777 0
DWIDTH 22 0
BBX 20 24 1 -4
BITMAP
01F000
07FE00
1FFF00
3FFF80
3F0FC0
7C03E0
F801E0
F001F0
F000F0
F000F0
F000F0
F000F0
F000F0
F801E0
7803E0
7E07E0
3FFFC0
1FFF80
0FFF00
03FC00
001E00
001F00
000F00
000780
ENDCHAR
STARTCHAR R
ENCODING 82
SWIDTH 651 0
DWIDTH 18 0
BBX 15 20 2 0
BITMAP
FF00
FFF0
FFF8
FFFC
F07E
F03E
F01E
F00E
F00E
F01E
F01E
F03E
FFFC
FFF8
FFF0
FFF0
F0F8
F078
F078
F03C
ENDCHAR
STARTCHAR S
ENCODING 83
SWIDTH 610 0
DWIDTH 17 0
BBX 15 20 1 0
BITMAP
07FE
3FFE
7FFE
FFFE
F800
F000
F000
F000
FFE0
7FF8
7FFC
1FFE
003E
001E
001E
001E
7FFE
7FFC
7FF8
7FF0
ENDCHAR
STARTCHAR T
ENCODING 84
SWIDTH 578 0
DWIDTH 16 0
BBX 16 20 0 0
BITMAP
FFFF
FFFF
FFFF
FFFF
03C0
03C0
03C0
03C0
03C0
03C0
03C0
03C0
03C0
03C0
03C0
03C0
03C0
03C0
03C0
03C0
ENDCHAR
STARTCHAR U
ENCODING 85
SWIDTH 673 0
DWIDTH 19 0
BBX 15 20 2 0
BITMAP
F01E
F01E
F01E
F01E
F01E
F01E
F01E
F01E
F01E
F01E
F01E
F01E
F01E
F01E
F01E
F87E
7FFC
3FF8
1FF0
07C0
ENDCHAR
STARTCHAR V
ENCODING 86
SWIDTH 602 0
DWIDTH 17 0
BBX 17 20 0 0
BITMAP
F80F80
F80F00
780F00
781F00
7C1E00
3C1E00
3C3E00
3E3C00
1E3C00
1E3C00
1E7800
0F7800
0F7800
0FF800
07F000
07F000
07F000
03E000
03E000
03E000
ENDCHAR
STARTCHAR W
ENCODING 87
SWIDTH 819 0
DWIDTH 23 0
BBX 19 20 2 0
BITMAP
F0E1E0
F0E1E0
F0E1E0
F0E1E0
F0E1E0
F0E1E0
F0E1E0
F0E1E0
F0E1E0
F0E1E0
F0E1E0
F0E1E0
F0E1E0
F0E1E0
F1E1E0
F1F1E0
FFFFE0
7FFFC0
7FFFC0
1F1F00
ENDCHAR
STARTCHAR X
ENCODING 88
SWIDTH 608 0
DWIDTH 17 0
BBX 17 20 0 0
BITMAP
F80F80
780F00
7C1F00
3E3E00
1E3E00
1F7C00
0F7800
0FF800
07F000
03E000
03E000
07F000
07F000
0FF800
1F7C00
1E3C00
3E3E00
3C1F00
7C1F00
F80F80
ENDCHAR
STARTCHAR Y
ENCODING 89
SWIDTH 620 0
DWIDTH 17 0
BBX 16 20 1 0
BITMAP
F00F
F00F
F00F
F00F
F00F
F00F
F00F
F01E
F01E
783E
7FFC
3FFC
1FF0
07E0
03C0
03C0
03C0
03C0
03C0
03C0
ENDCHAR
STARTCHAR Z
ENCODING 90
SWIDTH 586 0
DWIDTH 16 0
BBX 15 20 1 0
BITMAP
FFFE
FFFC
FFFC
FFF8
00F8
01F0
01F0
03E0
03E0
07C0
0780
0F80
0F00
1F00
1E00
3E00
7FFE
7FFE
FFFE
FFFE
ENDCHAR
STARTCHAR bracketleft
ENCODING 91
SWIDTH 380 0
DWIDTH 11 0
BBX 8 25 2 -3
BITMAP
FF
FF
FF
FF
F0
F0
F0
F0
F0
F0
F0
F0
F0
F0
F0
F0
F0
F0
F0
F0
F0
FF
FF
FF
FF
ENDCHAR
STARTCHAR backslash
ENCODING 92
SWIDTH 490 0
DWIDTH 14 0
BBX 12 20 1 0
BITMAP
F000
F000
7800
7800
7C00
3C00
3C00
1E00
1E00
0F00
0F00
0F00
0780
0780
03C0
03C0
03C0
01E0
01E0
00F0
ENDCHAR
STARTCHAR bracketright
ENCODING 93
SWIDTH 380 0
DWIDTH 11 0
BBX 8 25 1 -3
BITMAP
FF
FF
FF
FF
0F
0F
0F
0F
0F
0F
0F
0F
0F
0F
0F
0F
0F
0F
0F
0F
0F
FF
FF
FF
FF
ENDCHAR
STARTCHAR asciicircum
ENCODING 94
SWIDTH 293 0
DWIDTH 8 0
BBX 8 5 0 14
BITMAP
18
3C
7E
FF
62
ENDCHAR
STARTCHAR underscore
ENCODING 95
SWIDTH 598 0
DWIDTH 17 0
BBX 11 4 3 -7
BITMAP
FFE0
FFE0
FFE0
FFE0
ENDCHAR
STARTCHAR grave
ENCODING 96
SWIDTH 225 0
DWIDTH 6 0
BBX 6 5 0 14
BITMAP
60
70
FC
3C
08
ENDCHAR
STARTCHAR a
ENCODING 97
SWIDTH 607 0
DWIDTH 17 0
BBX 15 15 1 0
BITMAP
0FC2
3FF6
7FFE
7FFE
F87E
F03E
F01E
E01E
F01E
F03E
F83E
7FFE
7FFE
3FF6
0FC6
ENDCHAR
STARTCHAR b
ENCODING 98
SWIDTH 597 0
DWIDTH 17 0
BBX 15 20 1 0
BITMAP
F000
F000
F000
F000
F000
F7E0
FFF0
FFF8
FFFC
F83E
F01E
F01E
F01E
F01E
F01E
783E
7EFC
3FF8
1FF0
0FE0
ENDCHAR
STARTCHAR c
ENCODING 99
SWIDTH 521 0
DWIDTH 15 0
BBX 13 15 1 0
BITMAP
0FC0
3FF0
7FF8
7FF8
F870
F020
F000
E000
E000
F020
F830
7FF8
7FF8
3FF0
0FC0
ENDCHAR
STARTCHAR d
ENCODING 100
SWIDTH 606 0
DWIDTH 17 0
BBX 15 20 1 0
BITMAP
001E
001E
001E
001E
001E
0FDE
3FFE
7FFE
7FFE
F87E
F03E
F01E
E01E
F01E
F03E
F83E
7FFE
7FFE
3FF6
0FC6
ENDCHAR
STARTCHAR e
ENCODING 101
SWIDTH 524 0
DWIDTH 15 0
BBX 13 15 1 0
BITMAP
0FC0
3FF0
7FF8
7FF8
F8F0
F1E0
F3C0
E7C0
F780
FF20
FE30
7FF8
7FF8
3FF0
0FC0
ENDCHAR
STARTCHAR f
ENCODING 102
SWIDTH 395 0
DWIDTH 11 0
BBX 11 22 1 0
BITMAP
03E0
0FE0
1FE0
3FE0
3C00
3800
7800
FFC0
FFC0
FFC0
FFC0
7800
7800
7800
7800
7800
7800
7800
7800
7800
7800
7800
ENDCHAR
STARTCHAR g
ENCODING 103
SWIDTH 607 0
DWIDTH 17 0
BBX 15 21 1 -6
BITMAP
0FC2
3FF6
7FFE
7FFE
F87E
F03E
F01E
E01E
F01E
F03E
F83E
7FFE
7FFE
3FFE
0FDC
003C
007C
07F8
07F0
07E0
0700
ENDCHAR
STARTCHAR h
ENCODING 104
SWIDTH 562 0
DWIDTH 16 0
BBX 14 20 1 0
BITMAP
F000
F000
F000
F000
F000
F780
FFE0
FFF0
FFF8
F878
F038
F038
F03C
F03C
F03C
F03C
F03C
F03C
F03C
F03C
ENDCHAR
STARTCHAR i
ENCODING 105
SWIDTH 235 0
DWIDTH 7 0
BBX 5 21 1 0
BITMAP
70
F8
F8
F8
70
00
F0
F0
F0
F0
F0
F0
F0
F0
F0
F0
F0
F0
F0
F0
F0
ENDCHAR
STARTCHAR j
ENCODING 106
SWIDTH 237 0
DWIDTH 7 0
BBX 10 27 -4 -6
BITMAP
0380
07C0
07C0
07C0
0380
0000
0780
0780
0780
0780
0780
0780
0780
0780
0780
0780
0780
0780
0780
0780
0780
0780
1F00
FF00
FE00
FC00
C000
ENDCHAR
STARTCHAR k
ENCODING 107
SWIDTH 539 0
DWIDTH 15 0
BBX 14 20 1 0
BITMAP
F000
F000
F000
F000
F000
F03C
F078
F0F0
F1F0
F3E0
F3C0
F780
FFC0
FFC0
FFE0
FDE0
F8F0
F8F8
F078
F07C
ENDCHAR
STARTCHAR l
ENCODING 108
SWIDTH 235 0
DWIDTH 7 0
BBX 4 20 1 0
BITMAP
F0
F0
F0
F0
F0
F0
F0
F0
F0
F0
F0
F0
F0
F0
F0
F0
F0
F0
F0
F0
ENDCHAR
STARTCHAR m
ENCODING 109
SWIDTH 762 0
DWIDTH 21 0
BBX 19 15 1 0
BITMAP
8F1E00
FFBF80
FFFFC0
FFFFE0
F9F1E0
F0F1E0
F0F1E0
F0F1E0
F0F1E0
F0F1E0
F0F1E0
F0F1E0
F0F1E0
F0F1E0
F0F1E0
ENDCHAR
STARTCHAR n
ENCODING 110
SWIDTH 562 0
DWIDTH 16 0
BBX 14 15 1 0
BITMAP
8780
DFE0
FFF0
FFF8
F878
F038
F038
F03C
F03C
F03C
F03C
F03C
F03C
F03C
F03C
ENDCHAR
STARTCHAR o
ENCODING 111
SWIDTH 579 0
DWIDTH 16 0
BBX 15 15 1 0
BITMAP
0FC0
3FF0
7FF8
7FFC
F83C
F03C
F01E
E01E
F01E
F03C
F83C
7FFC
7FF8
3FF0
0FC0
ENDCHAR
STARTCHAR p
ENCODING 112
SWIDTH 608 0
DWIDTH 17 0
BBX 15 21 1 -6
BITMAP
87E0
CFF8
FFFC
FFFC
F83E
F81E
F00E
F00E
F00E
F81E
F83E
FFFC
FFFC
FFF8
F7E0
F000
F000
F000
F000
F000
F000
ENDCHAR
STARTCHAR q
ENCODING 113
SWIDTH 607 0
DWIDTH 17 0
BBX 15 21 1 -6
BITMAP
0FC2
3FE6
7FFE
7FFE
F87E
F03E
F01E
E01E
F01E
F03E
F83E
7FFE
7FFE
3FFE
0FDE
001E
001E
001E
001E
001E
001E
ENDCHAR
STARTCHAR r
ENCODING 114
SWIDTH 414 0
DWIDTH 12 0
BBX 10 15 1 0
BITMAP
83C0
DFC0
FFC0
FFC0
FC00
F800
F000
F000
F000
F000
F000
F000
F000
F000
F000
ENDCHAR
STARTCHAR s
ENCODING 115
SWIDTH 523 0
DWIDTH 15 0
BBX 13 15 1 0
BITMAP
0FF0
3FF0
7FF0
FFF0
F000
F000
FFE0
7FF0
7FF8
0FF8
0078
FFF8
FFF8
FFF0
FFE0
ENDCHAR
STARTCHAR t
ENCODING 116
SWIDTH 437 0
DWIDTH 12 0
BBX 12 20 0 0
BITMAP
3C00
3C00
3C00
3C00
3C00
FFF0
FFF0
FFF0
FFF0
3C00
3C00
3C00
3C00
3C00
3C00
1E00
1FF0
0FF0
07F0
03F0
ENDCHAR
STARTCHAR u
ENCODING 117
SWIDTH 562 0
DWIDTH 16 0
BBX 13 15 1 0
BITMAP
F038
F038
F038
F038
F038
F038
F038
F038
F038
F078
F878
7FF8
7FF8
3FF8
0FC8
ENDCHAR
STARTCHAR v
ENCODING 118
SWIDTH 532 0
DWIDTH 15 0
BBX 15 15 0 0
BITMAP
F01E
F83C
783C
783C
3C78
3C78
3CF8
1EF0
1EF0
1FE0
0FE0
0FE0
07C0
07C0
07C0
ENDCHAR
STARTCHAR w
ENCODING 119
SWIDTH 756 0
DWIDTH 21 0
BBX 19 15 1 0
BITMAP
F0E1E0
F0E1E0
F0E1E0
F0E1E0
F0E1E0
F0E1E0
F0E1E0
F0E1E0
F0E1E0
F0E1E0
F0F1E0
7FFBE0
7FFFC0
3FFF80
1FBF00
ENDCHAR
STARTCHAR x
ENCODING 120
SWIDTH 528 0
DWIDTH 15 0
BBX 15 15 0 0
BITMAP
F83E
787C
3C78
3EF8
1FF0
0FE0
07C0
07C0
07C0
0FE0
1FF0
3EF0
3C78
787C
F83E
ENDCHAR
STARTCHAR y
ENCODING 121
SWIDTH 562 0
DWIDTH 16 0
BBX 13 21 1 -6
BITMAP
F038
F038
F038
F038
F038
F038
F038
F038
F038
F078
F878
7FF8
7FF8
3FF8
0FF8
0078
01F8
0FF0
0FE0
0FC0
0E00
ENDCHAR
STARTCHAR z
ENCODING 122
SWIDTH 481 0
DWIDTH 14 0
BBX 12 15 1 0
BITMAP
FFF0
FFE0
FFE0
FFC0
03C0
0780
0F00
0F00
1E00
1E00
3C00
3FF0
7FF0
FFF0
FFF0
ENDCHAR
STARTCHAR braceleft
ENCODING 123
SWIDTH 466 0
DWIDTH 13 0
BBX 11 25 1 -3
BITMAP
07E0
0FE0
1FE0
1FE0
1E00
1E00
1E00
1E00
1E00
1E00
FE00
FC00
FC00
FC00
1E00
1E00
1E00
1E00
1E00
1E00
1E00
1FE0
0FE0
0FE0
03E0
ENDCHAR
STARTCHAR bar
ENCODING 124
SWIDTH 267 0
DWIDTH 7 0
BBX 4 25 2 -3
BITMAP
F0
F0
F0
F0
F0
F0
F0
F0
F0
F0
F0
F0
F0
F0
F0
F0
F0
F0
F0
F0
F0
F0
F0
F0
F0
ENDCHAR
STARTCHAR braceright
ENCODING 125
SWIDTH 466 0
DWIDTH 13 0
BBX 12 25 1 -3
BITMAP
FC00
FE00
FF00
FF00
0F00
0F00
0F00
0F00
0F00
0F00
07F0
07F0
07F0
07F0
0F00
0F00
0F00
0F00
0F00
0F00
0F00
FF00
FF00
FE00
F800
ENDCHAR
STARTCHAR asciitilde
ENCODING 126
SWIDTH 451 0
DWIDTH 13 0
BBX 10 5 1 8
BITMAP
39C0
7DC0
FFC0
FFC0
6380
ENDCHAR
STARTCHAR nonbreakingspace
ENCODING 160
SWIDTH 279 0
DWIDTH 8 0
BBX 1 1 0 0
BITMAP
00
ENDCHAR
STARTCHAR exclamdown
ENCODING 161
SWIDTH 274 0
DWIDTH 8 0
BBX 4 21 2 -4
BITMAP
40
F0
F0
F0
E0
00
E0
E0
F0
F0
F0
F0
F0
F0
F0
F0
F0
F0
F0
F0
F0
ENDCHAR
STARTCHAR cent
ENCODING 162
SWIDTH 462 0
DWIDTH 13 0
BBX 11 20 1 0
BITMAP
0600
0600
0600
0600
1F80
3FC0
7FE0
70C0
E000
E000
E000
E000
70C0
7FE0
3FC0
0F80
0600
0600
0600
0600
ENDCHAR
STARTCHAR sterling
ENCODING 163
SWIDTH 681 0
DWIDTH 19 0
BBX 17 20 1 0
BITMAP
00C000
07C000
0FC000
1FC000
1F0000
1E0000
1C0000
1C0000
1C0000
FF8000
FF8000
FF8000
FF8000
1C0000
1C0780
1C0780
1FFF80
1FFF00
1FFE00
1FFC00
ENDCHAR
STARTCHAR currency
ENCODING 164
SWIDTH 454 0
DWIDTH 13 0
BBX 11 11 1 4
BITMAP
4040
FFE0
FFC0
7380
61C0
60C0
61C0
7180
7FC0
FFE0
40C0
ENDCHAR
STARTCHAR yen
ENCODING 165
SWIDTH 653 0
DWIDTH 18 0
BBX 16 20 1 0
BITMAP
F00F
F00F
F00F
F00F
F00F
F00F
F00F
F00F
781F
7C3E
3FFE
3FFC
0FF0
7FFE
7FFE
7FFE
03C0
03C0
03C0
03C0
ENDCHAR
STARTCHAR brokenbar
ENCODING 166
SWIDTH 269 0
DWIDTH 8 0
BBX 4 25 2 -3
BITMAP
F0
F0
F0
F0
F0
F0
F0
F0
F0
F0
F0
00
00
00
F0
F0
F0
F0
F0
F0
F0
F0
F0
F0
F0
ENDCHAR
STARTCHAR section
ENCODING 167
SWIDTH 569 0
DWIDTH 16 0
BBX 13 20 2 0
BITMAP
0FF0
7FF0
FFF0
FFF0
E000
F000
FFE0
FFF0
FFF0
F078
E078
FFF8
FFF0
7FF0
3FF8
0078
FFF8
FFF0
FFF0
FFC0
ENDCHAR
STARTCHAR dieresis
ENCODING 168
SWIDTH 300 0
DWIDTH 8 0
BBX 8 3 0 15
BITMAP
E7
F7
E7
ENDCHAR
STARTCHAR copyright
ENCODING 169
SWIDTH 655 0
DWIDTH 18 0
BBX 16 16 1 2
BITMAP
03C0
0FF0
1E3C
308E
77E6
6E67
CC03
D803
D803
C803
6C03
67E6
73EE
381C
1FF8
07E0
ENDCHAR
STARTCHAR ordfeminine
ENCODING 170
SWIDTH 451 0
DWIDTH 13 0
BBX 9 13 2 7
BITMAP
3C80
7F80
E780
C380
C380
C380
E780
FF80
7C80
0000
0000
FF80
FF80
ENDCHAR
STARTCHAR guillemotleft
ENCODING 171
SWIDTH 704 0
DWIDTH 20 0
BBX 17 14 1 0
BITMAP
020300
078780
0F8F80
1F1F00
3E1E00
7C3C00
F87800
F87C00
7C3E00
3E1F00
1F0F80
0F8780
070300
000100
ENDCHAR
STARTCHAR logicalnot
ENCODING 172
SWIDTH 529 0
DWIDTH 15 0
BBX 11 7 2 5
BITMAP
FFE0
FFE0
FFE0
FFE0
01E0
01E0
01E0
ENDCHAR
STARTCHAR uni00AD
ENCODING 173
SWIDTH 418 0
DWIDTH 12 0
BBX 8 4 2 8
BITMAP
FF
FF
FF
FF
ENDCHAR
STARTCHAR registered
ENCODING 174
SWIDTH 439 0
DWIDTH 12 0
BBX 10 10 1 10
BITMAP
0E00
3F80
7C80
DEC0
9140
9340
9E40
52C0
6180
3F00
ENDCHAR
STARTCHAR macron
ENCODING 175
SWIDTH 247 0
DWIDTH 7 0
BBX 7 3 0 15
BITMAP
FE
FE
FE
ENDCHAR
STARTCHAR degree
ENCODING 176
SWIDTH 381 0
DWIDTH 11 0
BBX 9 9 1 10
BITMAP
3E00
7F00
FF00
E380
E380
F700
7F00
3E00
0800
ENDCHAR
STARTCHAR plusminus
ENCODING 177
SWIDTH 516 0
DWIDTH 14 0
BBX 12 15 1 0
BITMAP
0F00
0F00
0F00
FFF0
FFF0
FFF0
FFF0
0F00
0F00
0F00
0000
FFF0
FFF0
FFF0
FFF0
ENDCHAR
STARTCHAR twosuperior
ENCODING 178
SWIDTH 355 0
DWIDTH 10 0
BBX 8 10 1 10
BITMAP
78
7E
7E
07
3E
7E
F0
FE
FE
FE
ENDCHAR
STARTCHAR threesuperior
ENCODING 179
SWIDTH 354 0
DWIDTH 10 0
BBX 7 10 2 10
BITMAP
F0
FC
FE
0E
7E
7C
7E
FE
FC
F8
ENDCHAR
STARTCHAR acute
ENCODING 180
SWIDTH 225 0
DWIDTH 6 0
BBX 6 5 0 14
BITMAP
18
3C
7C
F0
60
ENDCHAR
STARTCHAR mu
ENCODING 181
SWIDTH 571 0
DWIDTH 16 0
BBX 13 21 2 -6
BITMAP
E078
E078
E078
E078
E078
E078
E078
E078
E078
F078
F0F8
FFF8
FFF8
FFD8
FF88
E000
E000
E000
E000
E000
E000
ENDCHAR
STARTCHAR paragraph
ENCODING 182
SWIDTH 808 0
DWIDTH 23 0
BBX 20 20 1 0
BITMAP
01FFF0
0FFFF0
1FFFF0
3FFFF0
7EF0F0
78F0F0
F0F0F0
F0F0F0
F0F0F0
F0F0F0
F8F0F0
7CF0F0
7FF0F0
3FF0F0
1FF0F0
07F0F0
00F0F0
00F0F0
00F0F0
00F0F0
ENDCHAR
STARTCHAR periodcentered
ENCODING 183
SWIDTH 261 0
DWIDTH 7 0
BBX 5 5 1 7
BITMAP
70
F8
F8
78
20
ENDCHAR
STARTCHAR cedilla
ENCODING 184
SWIDTH 208 0
DWIDTH 6 0
BBX 6 7 0 -6
BITMAP
10
30
38
3C
1C
FC
F8
ENDCHAR
STARTCHAR onesuperior
ENCODING 185
SWIDTH 231 0
DWIDTH 7 0
BBX 4 10 1 10
BITMAP
F0
F0
F0
70
70
70
70
70
70
70
ENDCHAR
STARTCHAR ordmasculine
ENCODING 186
SWIDTH 432 0
DWIDTH 12 0
BBX 9 13 2 7
BITMAP
3C00
7E00
E700
C300
C380
C300
E300
FF00
7E00
0000
0000
FF80
FF80
ENDCHAR
STARTCHAR guillemotright
ENCODING 187
SWIDTH 703 0
DWIDTH 20 0
BBX 18 14 1 0
BITMAP
203000
707800
787C00
3C3E00
3E1F00
1F0F80
0F87C0
0F87C0
1F1F00
3E3E00
7C7C00
F87800
703000
200000
ENDCHAR
STARTCHAR onequarter
ENCODING 188
SWIDTH 648 0
DWIDTH 18 0
BBX 16 20 1 0
BITMAP
781C
7838
7838
3870
3870
38E0
39C0
39C0
3B80
3B80
0770
0776
0E76
0E76
1C66
3866
38FF
70FF
7006
E006
ENDCHAR
STARTCHAR onehalf
ENCODING 189
SWIDTH 637 0
DWIDTH 18 0
BBX 16 20 1 0
BITMAP
781C
7838
7838
3870
3870
38E0
39C0
39C0
3B80
3B80
0778
077E
0E7F
0E07
1C3F
387E
3870
707F
707F
E07F
ENDCHAR
STARTCHAR threequarters
ENCODING 190
SWIDTH 708 0
DWIDTH 20 0
BBX 18 20 1 0
BITMAP
F80E00
FE0E00
FE1C00
061C00
7E3800
7E3800
7E7000
FE7000
FEE000
FDC000
01DC00
039F80
039B80
071B80
073B80
0E3B80
0E3FC0
1C3FC0
1C0380
380380
ENDCHAR
STARTCHAR questiondown
ENCODING 191
SWIDTH 602 0
DWIDTH 17 0
BBX 15 21 1 -4
BITMAP
0040
01E0
01F0
01F0
00E0
0000
00E0
01E0
01E0
0FE0
3FE0
7FC0
FF00
F800
F000
F000
F000
FFFE
7FFE
3FFE
0FFE
ENDCHAR
STARTCHAR Agrave
ENCODING 192
SWIDTH 673 0
DWIDTH 19 0
BBX 15 26 2 0
BITMAP
0C00
1E00
1F00
0F80
0300
0000
0380
1FE0
3FF8
7FFC
7EFC
F83E
F01E
F01E
F01E
F01E
F01E
F01E
FFFE
FFFE
FFFE
FFFE
F01E
F01E
F01E
F01E
ENDCHAR
STARTCHAR Aacute
ENCODING 193
SWIDTH 673 0
DWIDTH 19 0
BBX 15 26 2 0
BITMAP
0060
00F0
01F0
03C0
0180
0000
0380
1FE0
3FF8
7FFC
7EFC
F83E
F01E
F01E
F01E
F01E
F01E
F01E
FFFE
FFFE
FFFE
FFFE
F01E
F01E
F01E
F01E
ENDCHAR
STARTCHAR Acircumflex
ENCODING 194
SWIDTH 673 0
DWIDTH 19 0
BBX 15 25 2 0
BITMAP
0300
07C0
0FE0
0EE0
0440
0380
1FE0
3FF8
7FFC
7EFC
F83E
F01E
F01E
F01E
F01E
F01E
F01E
FFFE
FFFE
FFFE
FFFE
F01E
F01E
F01E
F01E
ENDCHAR
STARTCHAR Atilde
ENCODING 195
SWIDTH 673 0
DWIDTH 19 0
BBX 15 25 2 0
BITMAP
0F70
1FF0
1FF0
1CE0
0000
0380
1FE0
3FF8
7FFC
7EFC
F83E
F01E
F01E
F01E
F01E
F01E
F01E
FFFE
FFFE
FFFE
FFFE
F01E
F01E
F01E
F01E
ENDCHAR
STARTCHAR Adieresis
ENCODING 196
SWIDTH 673 0
DWIDTH 19 0
BBX 15 24 2 0
BITMAP
1C60
1EF0
0C60
0000
0380
1FE0
3FF8
7FFC
7EFC
F83E
F01E
F01E
F01E
F01E
F01E
F01E
FFFE
FFFE
FFFE
FFFE
F01E
F01E
F01E
F01E
ENDCHAR
STARTCHAR Aring
ENCODING 197
SWIDTH 673 0
DWIDTH 19 0
BBX 15 24 2 0
BITMAP
0380
07C0
06C0
07C0
0780
1FE0
3FF8
7FFC
7EFC
F83E
F01E
F01E
F01E
F01E
F01E
F01E
FFFE
FFFE
FFFE
FFFE
F01E
F01E
F01E
F01E
ENDCHAR
STARTCHAR AE
ENCODING 198
SWIDTH 988 0
DWIDTH 28 0
BBX 25 20 2 0
BITMAP
03FFFF80
1FFFFF80
3FFFFF80
7FFFFF80
7E1E0000
F81E0000
F01E0000
F01E0000
F01FFC00
F01FFC00
F01FFC00
F01FFC00
FFFE0000
FFFE0000
FFFE0000
FFFE0000
F01FFF80
F01FFF80
F01FFF80
F01FFF80
ENDCHAR
STARTCHAR Ccedilla
ENCODING 199
SWIDTH 640 0
DWIDTH 18 0
BBX 16 26 1 -6
BITMAP
01F0
07FE
1FFF
3FFF
3F0E
7C02
F800
F000
F000
F000
F000
F000
F000
F800
7800
7E06
3FFF
1FFF
0FFF
03FC
0180
01C0
01E0
02E0
07E0
03C0
ENDCHAR
STARTCHAR Egrave
ENCODING 200
SWIDTH 578 0
DWIDTH 16 0
BBX 13 26 2 0
BITMAP
1800
1C00
3F00
0F00
0200
0000
FFF8
FFF8
FFF8
FFF8
F000
F000
F000
F000
FFC0
FFC0
FFC0
FFC0
F000
F000
F000
F000
FFF8
FFF8
FFF8
FFF8
ENDCHAR
STARTCHAR Eacute
ENCODING 201
SWIDTH 578 0
DWIDTH 16 0
BBX 13 26 2 0
BITMAP
00C0
01E0
03E0
07C0
0300
0000
FFF8
FFF8
FFF8
FFF8
F000
F000
F000
F000
FFC0
FFC0
FFC0
FFC0
F000
F000
F000
F000
FFF8
FFF8
FFF8
FFF8
ENDCHAR
STARTCHAR Ecircumflex
ENCODING 202
SWIDTH 578 0
DWIDTH 16 0
BBX 13 26 2 0
BITMAP
0700
0F80
1FC0
1DC0
0880
0000
FFF8
FFF8
FFF8
FFF8
F000
F000
F000
F000
FFC0
FFC0
FFC0
FFC0
F000
F000
F000
F000
FFF8
FFF8
FFF8
FFF8
ENDCHAR
STARTCHAR Edieresis
ENCODING 203
SWIDTH 578 0
DWIDTH 16 0
BBX 13 24 2 0
BITMAP
1CC0
3DE0
18C0
0000
FFF8
FFF8
FFF8
FFF8
F000
F000
F000
F000
FFC0
FFC0
FFC0
FFC0
F000
F000
F000
F000
FFF8
FFF8
FFF8
FFF8
ENDCHAR
STARTCHAR Igrave
ENCODING 204
SWIDTH 270 0
DWIDTH 8 0
BBX 7 26 -1 0
BITMAP
60
70
FC
3C
08
00
1E
1E
1E
1E
1E
1E
1E
1E
1E
1E
1E
1E
1E
1E
1E
1E
1E
1E
1E
1E
ENDCHAR
STARTCHAR Iacute
ENCODING 205
SWIDTH 270 0
DWIDTH 8 0
BBX 6 26 2 0
BITMAP
18
3C
7C
F8
60
00
F0
F0
F0
F0
F0
F0
F0
F0
F0
F0
F0
F0
F0
F0
F0
F0
F0
F0
F0
F0
ENDCHAR
STARTCHAR Icircumflex
ENCODING 206
SWIDTH 270 0
DWIDTH 8 0
BBX 6 26 1 0
BITMAP
30
78
FC
DC
80
00
78
78
78
78
78
78
78
78
78
78
78
78
78
78
78
78
78
78
78
78
ENDCHAR
STARTCHAR Idieresis
ENCODING 207
SWIDTH 270 0
DWIDTH 8 0
BBX 8 24 0 0
BITMAP
E7
E7
E7
00
3C
3C
3C
3C
3C
3C
3C
3C
3C
3C
3C
3C
3C
3C
3C
3C
3C
3C
3C
3C
ENDCHAR
STARTCHAR Eth
ENCODING 208
SWIDTH 672 0
DWIDTH 19 0
BBX 18 20 0 0
BITMAP
3F8000
3FF800
3FFC00
3FFE00
3C7F00
3C0F80
3C0780
3C07C0
FF83C0
FF83C0
FF83C0
FF83C0
3C03C0
3C0780
3C0F80
3C1F00
3FFF00
3FFE00
3FF800
3FE000
ENDCHAR
STARTCHAR Ntilde
ENCODING 209
SWIDTH 689 0
DWIDTH 19 0
BBX 16 25 2 0
BITMAP
0F30
1FF0
1FF0
1CE0
0000
F00F
F80F
F80F
FC0F
FC0F
FE0F
FF0F
FF0F
F78F
F78F
F3CF
F3EF
F1EF
F1FF
F0FF
F07F
F07F
F03F
F03F
F01F
ENDCHAR
STARTCHAR Ograve
ENCODING 210
SWIDTH 777 0
DWIDTH 22 0
BBX 20 26 1 0
BITMAP
030000
038000
07E000
01E000
004000
000000
01F000
07FE00
1FFF00
3FFF80
3F0FC0
7C03E0
F801E0
F001F0
F000F0
F000F0
F000F0
F000F0
F000F0
F801E0
7803E0
7E07E0
3FFFC0
1FFF80
0FFF00
03FC00
ENDCHAR
STARTCHAR Oacute
ENCODING 211
SWIDTH 777 0
DWIDTH 22 0
BBX 20 27 1 0
BITMAP
000800
001800
003C00
007C00
007800
006000
000000
01F000
07FE00
1FFF00
3FFF80
3F0FC0
7C03E0
F801E0
F001F0
F000F0
F000F0
F000F0
F000F0
F000F0
F801E0
7803E0
7E07E0
3FFFC0
1FFF80
0FFF00
03FC00
ENDCHAR
STARTCHAR Ocircumflex
ENCODING 212
SWIDTH 777 0
DWIDTH 22 0
BBX 20 26 1 0
BITMAP
006000
00F000
01F800
01B800
010000
000000
01F000
07FE00
1FFF00
3FFF80
3F0FC0
7C03E0
F801E0
F001F0
F000F0
F000F0
F000F0
F000F0
F000F0
F801E0
7803E0
7E07E0
3FFFC0
1FFF80
0FFF00
03FC00
ENDCHAR
STARTCHAR Otilde
ENCODING 213
SWIDTH 777 0
DWIDTH 22 0
BBX 20 25 1 0
BITMAP
03CC00
07FC00
07FC00
033C00
000000
01F000
07FE00
1FFF00
3FFF80
3F0FC0
7C03E0
F801E0
F001F0
F000F0
F000F0
F000F0
F000F0
F000F0
F801E0
7803E0
7E07E0
3FFFC0
1FFF80
0FFF00
03FC00
ENDCHAR
STARTCHAR Odieresis
ENCODING 214
SWIDTH 777 0
DWIDTH 22 0
BBX 20 24 1 0
BITMAP
039C00
039C00
039C00
000000
01F000
07FE00
1FFF00
3FFF80
3F0FC0
7C03E0
F801E0
F001F0
F000F0
F000F0
F000F0
F000F0
F000F0
F801E0
7803E0
7E07E0
3FFFC0
1FFF80
0FFF00
03FC00
ENDCHAR
STARTCHAR multiply
ENCODING 215
SWIDTH 479 0
DWIDTH 13 0
BBX 11 10 1 5
BITMAP
3080
79C0
FFE0
7FC0
3F80
1F80
3FC0
7FE0
7BC0
3180
ENDCHAR
STARTCHAR Oslash
ENCODING 216
SWIDTH 777 0
DWIDTH 22 0
BBX 20 20 1 0
BITMAP
01F1E0
07FFC0
1FFF80
3FFF80
3F0FC0
7C1FE0
F81DE0
F03DF0
F078F0
F070F0
F0F0F0
F1E0F0
F3C0F0
FB81E0
7F83E0
7F07E0
3FFFC0
1FFF80
3FFF00
7BFC00
ENDCHAR
STARTCHAR Ugrave
ENCODING 217
SWIDTH 673 0
DWIDTH 19 0
BBX 15 26 2 0
BITMAP
0C00
1E00
1F00
0780
0300
0000
F01E
F01E
F01E
F01E
F01E
F01E
F01E
F01E
F01E
F01E
F01E
F01E
F01E
F01E
F01E
F87E
7FFC
3FF8
1FF0
07C0
ENDCHAR
STARTCHAR Uacute
ENCODING 218
SWIDTH 673 0
DWIDTH 19 0
BBX 15 26 2 0
BITMAP
0060
00F0
01F0
03C0
0180
0000
F01E
F01E
F01E
F01E
F01E
F01E
F01E
F01E
F01E
F01E
F01E
F01E
F01E
F01E
F01E
F87E
7FFC
3FF8
1FF0
07C0
ENDCHAR
STARTCHAR Ucircumflex
ENCODING 219
SWIDTH 673 0
DWIDTH 19 0
BBX 15 25 2 0
BITMAP
0300
07C0
0FE0
0EE0
0440
F01E
F01E
F01E
F01E
F01E
F01E
F01E
F01E
F01E
F01E
F01E
F01E
F01E
F01E
F01E
F87E
7FFC
3FF8
1FF0
07C0
ENDCHAR
STARTCHAR Udieresis
ENCODING 220
SWIDTH 673 0
DWIDTH 19 0
BBX 15 24 2 0
BITMAP
1C60
1EF0
0C60
0000
F01E
F01E
F01E
F01E
F01E
F01E
F01E
F01E
F01E
F01E
F01E
F01E
F01E
F01E
F01E
F87E
7FFC
3FF8
1FF0
07C0
ENDCHAR
STARTCHAR Yacute
ENCODING 221
SWIDTH 620 0
DWIDTH 17 0
BBX 16 26 1 0
BITMAP
0060
00F0
01F0
03E0
0180
0000
F00F
F00F
F00F
F00F
F00F
F00F
F00F
F01E
F01E
783E
7FFC
3FFC
1FF0
07E0
03C0
03C0
03C0
03C0
03C0
03C0
ENDCHAR
STARTCHAR Thorn
ENCODING 222
SWIDTH 637 0
DWIDTH 18 0
BBX 16 21 2 -1
BITMAP
F000
F000
FF80
FFF0
FFF8
FFFC
F07E
F03E
F01E
F00E
F00F
F01E
F01E
F03E
FFFC
FFF8
FFF0
FFE0
F000
F000
F000
ENDCHAR
STARTCHAR germandbls
ENCODING 223
SWIDTH 813 0
DWIDTH 23 0
BBX 22 22 1 0
BITMAP
03F800
0FFE00
1FFF00
3FFF80
3C0780
380780
780780
F81F80
F87F00
F8FF00
F9FC00
79E000
79E000
79FFE0
78FFF0
787FF8
781FF8
78003C
78FFF8
78FFF8
78FFF0
78FFE0
ENDCHAR
STARTCHAR agrave
ENCODING 224
SWIDTH 607 0
DWIDTH 17 0
BBX 15 22 1 0
BITMAP
0C00
1E00
1F00
0F00
0300
0000
0000
0FC2
3FF6
7FFE
7FFE
F87E
F03E
F01E
E01E
F01E
F03E
F83E
7FFE
7FFE
3FF6
0FC6
ENDCHAR
STARTCHAR aacute
ENCODING 225
SWIDTH 607 0
DWIDTH 17 0
BBX 15 23 1 0
BITMAP
0040
00C0
01E0
03E0
03C0
0300
0000
0000
0FC2
3FF6
7FFE
7FFE
F87E
F03E
F01E
E01E
F01E
F03E
F83E
7FFE
7FFE
3FF6
0FC6
ENDCHAR
STARTCHAR acircumflex
ENCODING 226
SWIDTH 607 0
DWIDTH 17 0
BBX 15 21 1 0
BITMAP
0300
0780
0FC0
0EC0
0040
0000
0FC2
3FF6
7FFE
7FFE
F87E
F03E
F01E
E01E
F01E
F03E
F83E
7FFE
7FFE
3FF6
0FC6
ENDCHAR
STARTCHAR atilde
ENCODING 227
SWIDTH 607 0
DWIDTH 17 0
BBX 15 20 1 0
BITMAP
1E70
1FF0
1FE0
19E0
0000
0FC2
3FF6
7FFE
7FFE
F87E
F03E
F01E
E01E
F01E
F03E
F83E
7FFE
7FFE
3FF6
0FC6
ENDCHAR
STARTCHAR adieresis
ENCODING 228
SWIDTH 607 0
DWIDTH 17 0
BBX 15 19 1 0
BITMAP
1CE0
1CE0
1CE0
0000
0FC2
3FF6
7FFE
7FFE
F87E
F03E
F01E
E01E
F01E
F03E
F83E
7FFE
7FFE
3FF6
0FC6
ENDCHAR
STARTCHAR aring
ENCODING 229
SWIDTH 607 0
DWIDTH 17 0
BBX 15 22 1 0
BITMAP
0300
0780
0CC0
0CC0
0780
0100
0000
0FC2
3FF6
7FFE
7FFE
F87E
F03E
F01E
E01E
F01E
F03E
F83E
7FFE
7FFE
3FF6
0FC6
ENDCHAR
STARTCHAR ae
ENCODING 230
SWIDTH 976 0
DWIDTH 27 0
BBX 26 15 1 0
BITMAP
0FC2FE00
3FF7FF00
7FFFFFC0
7FFFFF80
F87F8F80
F03F9F00
F01F1E00
E01F3C00
F01F7800
F03FF000
F83FF300
7FFFEF80
7FFFFFC0
3FF7FF80
0FC6FE00
ENDCHAR
STARTCHAR ccedilla
ENCODING 231
SWIDTH 521 0
DWIDTH 15 0
BBX 13 21 1 -6
BITMAP
0FC0
3FF0
7FF8
7FF8
F870
F020
F000
E000
E000
F020
F830
7FF8
7FF8
3FF0
0FC0
0200
0700
0780
0980
0F80
0F80
ENDCHAR
STARTCHAR egrave
ENCODING 232
SWIDTH 524 0
DWIDTH 15 0
BBX 13 22 1 0
BITMAP
1800
1C00
3F00
0F00
0200
0000
0000
0FC0
3FF0
7FF8
7FF8
F8F0
F1E0
F3C0
E7C0
F780
FF20
FE30
7FF8
7FF8
3FF0
0FC0
ENDCHAR
STARTCHAR eacute
ENCODING 233
SWIDTH 524 0
DWIDTH 15 0
BBX 13 23 1 0
BITMAP
0040
00C0
01E0
03E0
03C0
0300
0000
0000
0FC0
3FF0
7FF8
7FF8
F8F0
F1E0
F3C0
E7C0
F780
FF20
FE30
7FF8
7FF8
3FF0
0FC0
ENDCHAR
STARTCHAR ecircumflex
ENCODING 234
SWIDTH 524 0
DWIDTH 15 0
BBX 13 21 1 0
BITMAP
0600
0F80
1FC0
1DC0
0880
0000
0FC0
3FF0
7FF8
7FF8
F8F0
F1E0
F3C0
E7C0
F780
FF20
FE30
7FF8
7FF8
3FF0
0FC0
ENDCHAR
STARTCHAR edieresis
ENCODING 235
SWIDTH 524 0
DWIDTH 15 0
BBX 13 19 1 0
BITMAP
38C0
3DE0
18C0
0000
0FC0
3FF0
7FF8
7FF8
F8F0
F1E0
F3C0
E7C0
F780
FF20
FE30
7FF8
7FF8
3FF0
0FC0
ENDCHAR
STARTCHAR igrave
ENCODING 236
SWIDTH 235 0
DWIDTH 7 0
BBX 6 21 -1 0
BITMAP
60
F0
F8
7C
18
00
3C
3C
3C
3C
3C
3C
3C
3C
3C
3C
3C
3C
3C
3C
3C
ENDCHAR
STARTCHAR iacute
ENCODING 237
SWIDTH 235 0
DWIDTH 7 0
BBX 7 21 1 0
BITMAP
0C
1C
3E
78
30
00
F0
F0
F0
F0
F0
F0
F0
F0
F0
F0
F0
F0
F0
F0
F0
ENDCHAR
STARTCHAR icircumflex
ENCODING 238
SWIDTH 235 0
DWIDTH 7 0
BBX 7 21 0 0
BITMAP
30
78
FE
EE
44
00
78
78
78
78
78
78
78
78
78
78
78
78
78
78
78
ENDCHAR
STARTCHAR idieresis
ENCODING 239
SWIDTH 235 0
DWIDTH 7 0
BBX 9 19 -1 0
BITMAP
E700
F780
E700
0000
3C00
3C00
3C00
3C00
3C00
3C00
3C00
3C00
3C00
3C00
3C00
3C00
3C00
3C00
3C00
ENDCHAR
STARTCHAR eth
ENCODING 240
SWIDTH 581 0
DWIDTH 16 0
BBX 15 21 1 0
BITMAP
07C0
1FFC
1FFC
1FFC
1FFC
00F0
0FF8
3FF8
7FFC
7FFC
F83C
F03C
F01E
E01E
F01E
F03C
F83C
7FFC
7FF8
3FF0
0FC0
ENDCHAR
STARTCHAR ntilde
ENCODING 241
SWIDTH 562 0
DWIDTH 16 0
BBX 14 20 1 0
BITMAP
1E60
1FE0
3FE0
19E0
0000
8780
DFE0
FFF0
FFF8
F878
F038
F038
F03C
F03C
F03C
F03C
F03C
F03C
F03C
F03C
ENDCHAR
STARTCHAR ograve
ENCODING 242
SWIDTH 579 0
DWIDTH 16 0
BBX 15 23 1 0
BITMAP
0800
0C00
1E00
1F00
0F00
0300
0000
0000
0FC0
3FF0
7FF8
7FFC
F83C
F03C
F01E
E01E
F01E
F03C
F83C
7FFC
7FF8
3FF0
0FC0
ENDCHAR
STARTCHAR oacute
ENCODING 243
SWIDTH 579 0
DWIDTH 16 0
BBX 15 23 1 0
BITMAP
0040
00C0
01E0
03E0
03C0
0300
0000
0000
0FC0
3FF0
7FF8
7FFC
F83C
F03C
F01E
E01E
F01E
F03C
F83C
7FFC
7FF8
3FF0
0FC0
ENDCHAR
STARTCHAR ocircumflex
ENCODING 244
SWIDTH 579 0
DWIDTH 16 0
BBX 15 21 1 0
BITMAP
0300
0780
0FC0
0EC0
0040
0000
0FC0
3FF0
7FF8
7FFC
F83C
F03C
F01E
E01E
F01E
F03C
F83C
7FFC
7FF8
3FF0
0FC0
ENDCHAR
STARTCHAR otilde
ENCODING 245
SWIDTH 579 0
DWIDTH 16 0
BBX 15 20 1 0
BITMAP
1E70
1FF0
1FE0
19E0
0000
0FC0
3FF0
7FF8
7FFC
F83C
F03C
F01E
E01E
F01E
F03C
F83C
7FFC
7FF8
3FF0
0FC0
ENDCHAR
STARTCHAR odieresis
ENCODING 246
SWIDTH 579 0
DWIDTH 16 0
BBX 15 19 1 0
BITMAP
1CE0
1CE0
1CE0
0000
0FC0
3FF0
7FF8
7FFC
F83C
F03C
F01E
E01E
F01E
F03C
F83C
7FFC
7FF8
3FF0
0FC0
ENDCHAR
STARTCHAR divide
ENCODING 247
SWIDTH 494 0
DWIDTH 14 0
BBX 12 14 1 3
BITMAP
0600
0F00
0F00
0E00
0000
FFF0
FFF0
FFF0
FFF0
0000
0E00
0F00
0F00
0600
ENDCHAR
STARTCHAR oslash
ENCODING 248
SWIDTH 579 0
DWIDTH 16 0
BBX 15 15 1 0
BITMAP
0FDC
3FFC
7FF8
7FFC
F8FC
F1FC
F3DE
E79E
E71E
FF3C
FE3C
7FFC
7FF8
7FF0
FFC0
ENDCHAR
STARTCHAR ugrave
ENCODING 249
SWIDTH 562 0
DWIDTH 16 0
BBX 13 21 1 0
BITMAP
1800
1C00
3E00
0F00
0200
0000
F038
F038
F038
F038
F038
F038
F038
F038
F038
F078
F878
7FF8
7FF8
3FF8
0FC8
ENDCHAR
STARTCHAR uacute
ENCODING 250
SWIDTH 562 0
DWIDTH 16 0
BBX 13 21 1 0
BITMAP
00C0
01E0
03E0
03C0
0300
0000
F038
F038
F038
F038
F038
F038
F038
F038
F038
F078
F878
7FF8
7FF8
3FF8
0FC8
ENDCHAR
STARTCHAR ucircumflex
ENCODING 251
SWIDTH 562 0
DWIDTH 16 0
BBX 13 20 1 0
BITMAP
0300
0780
0FC0
1DC0
0880
F038
F038
F038
F038
F038
F038
F038
F038
F038
F078
F878
7FF8
7FF8
3FF8
0FC8
ENDCHAR
STARTCHAR udieresis
ENCODING 252
SWIDTH 562 0
DWIDTH 16 0
BBX 13 19 1 0
BITMAP
1CE0
1CE0
1CE0
0000
F038
F038
F038
F038
F038
F038
F038
F038
F038
F078
F878
7FF8
7FF8
3FF8
0FC8
ENDCHAR
STARTCHAR yacute
ENCODING 253
SWIDTH 562 0
DWIDTH 16 0
BBX 13 27 1 -6
BITMAP
00C0
01E0
03E0
07C0
0300
0000
F038
F038
F038
F038
F038
F038
F038
F038
F038
F078
F878
7FF8
7FF8
3FF8
0FF8
0078
01F8
0FF0
0FE0
0FC0
0E00
ENDCHAR
STARTCHAR thorn
ENCODING 254
SWIDTH 608 0
DWIDTH 17 0
BBX 15 27 1 -6
BITMAP
F000
F000
F000
F000
F000
F000
F7E0
FFF8
FFFC
FFFC
F83E
F81E
F00E
F00E
F00E
F81E
F83E
FFFC
FFFC
FFF8
F7E0
F000
F000
F000
F000
F000
F000
ENDCHAR
STARTCHAR ydieresis
ENCODING 255
SWIDTH 562 0
DWIDTH 16 0
BBX 13 25 1 -6
BITMAP
1CE0
1CE0
1CE0
0000
F038
F038
F038
F038
F038
F038
F038
F038
F038
F078
F878
7FF8
7FF8
3FF8
0FF8
0078
01F8
0FF0
0FE0
0FC0
0E00
ENDCHAR
STARTCHAR Amacron
ENCODING 256
SWIDTH 673 0
DWIDTH 19 0
BBX 15 24 2 0
BITMAP
0FE0
0FE0
0FE0
0000
0380
1FE0
3FF8
7FFC
7EFC
F83E
F01E
F01E
F01E
F01E
F01E
F01E
FFFE
FFFE
FFFE
FFFE
F01E
F01E
F01E
F01E
ENDCHAR
STARTCHAR amacron
ENCODING 257
SWIDTH 607 0
DWIDTH 17 0
BBX 15 19 1 0
BITMAP
1FC0
1FC0
1FC0
0000
0FC2
3FF6
7FFE
7FFE
F87E
F03E
F01E
E01E
F01E
F03E
F83E
7FFE
7FFE
3FF6
0FC6
ENDCHAR
STARTCHAR Abreve
ENCODING 258
SWIDTH 673 0
DWIDTH 19 0
BBX 15 25 2 0
BITMAP
0EC0
0FC0
07C0
0380
0000
0380
1FE0
3FF8
7FFC
7EFC
F83E
F01E
F01E
F01E
F01E
F01E
F01E
FFFE
FFFE
FFFE
FFFE
F01E
F01E
F01E
F01E
ENDCHAR
STARTCHAR abreve
ENCODING 259
SWIDTH 607 0
DWIDTH 17 0
BBX 15 20 1 0
BITMAP
0DC0
0FC0
0FC0
0780
0000
0FC2
3FF6
7FFE
7FFE
F87E
F03E
F01E
E01E
F01E
F03E
F83E
7FFE
7FFE
3FF6
0FC6
ENDCHAR
STARTCHAR Aogonek
ENCODING 260
SWIDTH 673 0
DWIDTH 19 0
BBX 16 25 2 -5
BITMAP
0380
1FE0
3FF8
7FFC
7EFC
F83E
F01E
F01E
F01E
F01E
F01E
F01E
FFFE
FFFE
FFFE
FFFE
F01E
F01E
F01E
F01E
001C
0018
003E
001F
000E
ENDCHAR
STARTCHAR aogonek
ENCODING 261
SWIDTH 607 0
DWIDTH 17 0
BBX 17 20 1 -5
BITMAP
0FC200
3FF600
7FFE00
7FFE00
F87E00
F03E00
F01E00
E01E00
F01E00
F03E00
F83E00
7FFE00
7FFE00
3FF600
0FC600
000C00
001C00
001F00
001F80
000F00
ENDCHAR
STARTCHAR Cacute
ENCODING 262
SWIDTH 640 0
DWIDTH 18 0
BBX 16 26 1 0
BITMAP
0018
003C
007C
00F0
0060
0000
01F0
07FE
1FFF
3FFF
3F0E
7C02
F800
F000
F000
F000
F000
F000
F000
F800
7800
7E06
3FFF
1FFF
0FFF
03FC
ENDCHAR
STARTCHAR cacute
ENCODING 263
SWIDTH 521 0
DWIDTH 15 0
BBX 13 22 1 0
BITMAP
00C0
01E0
03E0
07C0
0300
0000
0000
0FC0
3FF0
7FF8
7FF8
F870
F020
F000
E000
E000
F020
F830
7FF8
7FF8
3FF0
0FC0
ENDCHAR
STARTCHAR Ccircumflex
ENCODING 264
SWIDTH 640 0
DWIDTH 18 0
BBX 16 26 1 0
BITMAP
00C0
01E0
03F8
03B8
0110
0000
01F0
07FE
1FFF
3FFF
3F0E
7C02
F800
F000
F000
F000
F000
F000
F000
F800
7800
7E06
3FFF
1FFF
0FFF
03FC
ENDCHAR
STARTCHAR ccircumflex
ENCODING 265
SWIDTH 521 0
DWIDTH 15 0
BBX 13 21 1 0
BITMAP
0300
0780
0FC0
0CC0
0040
0000
0FC0
3FF0
7FF8
7FF8
F870
F020
F000
E000
E000
F020
F830
7FF8
7FF8
3FF0
0FC0
ENDCHAR
STARTCHAR Cdotaccent
ENCODING 266
SWIDTH 640 0
DWIDTH 18 0
BBX 16 25 1 0
BITMAP
0040
00E0
00E0
00E0
0000
01F0
07FE
1FFF
3FFF
3F0E
7C02
F800
F000
F000
F000
F000
F000
F000
F800
7800
7E06
3FFF
1FFF
0FFF
03FC
ENDCHAR
STARTCHAR cdotaccent
ENCODING 267
SWIDTH 521 0
DWIDTH 15 0
BBX 13 19 1 0
BITMAP
0380
0780
0300
0000
0FC0
3FF0
7FF8
7FF8
F870
F020
F000
E000
E000
F020
F830
7FF8
7FF8
3FF0
0FC0
ENDCHAR
STARTCHAR Ccaron
ENCODING 268
SWIDTH 640 0
DWIDTH 18 0
BBX 16 27 1 0
BITMAP
0100
01B8
03F8
01F0
0060
0000
0000
01F0
07FE
1FFF
3FFF
3F0E
7C02
F800
F000
F000
F000
F000
F000
F000
F800
7800
7E06
3FFF
1FFF
0FFF
03FC
ENDCHAR
STARTCHAR ccaron
ENCODING 269
SWIDTH 521 0
DWIDTH 15 0
BBX 13 21 1 0
BITMAP
0CC0
0FC0
0780
0300
0000
0000
0FC0
3FF0
7FF8
7FF8
F870
F020
F000
E000
E000
F020
F830
7FF8
7FF8
3FF0
0FC0
ENDCHAR
STARTCHAR Dcaron
ENCODING 270
SWIDTH 653 0
DWIDTH 18 0
BBX 16 25 2 0
BITMAP
0CC0
0FE0
07C0
0300
0000
FE00
FFC0
FFF0
FFF8
F1FC
F07C
F03E
F01E
F01E
F00E
F00F
F01E
F01E
F01E
F03E
F0FC
FFF8
FFF0
FFE0
FF80
ENDCHAR
STARTCHAR dcaron
ENCODING 271
SWIDTH 740 0
DWIDTH 21 0
BBX 20 20 1 0
BITMAP
001E60
001EF0
001EF0
001EF0
001E60
0FDE60
3FFE00
7FFE00
7FFE00
F87E00
F03E00
F01E00
E01E00
F01E00
F03E00
F83E00
7FFE00
7FFE00
3FF600
0FC600
ENDCHAR
STARTCHAR Dcroat
ENCODING 272
SWIDTH 672 0
DWIDTH 19 0
BBX 18 20 0 0
BITMAP
3F8000
3FF800
3FFC00
3FFE00
3C7F00
3C0F80
3C0780
3C07C0
FF83C0
FF83C0
FF83C0
FF83C0
3C03C0
3C0780
3C0F80
3C1F00
3FFF00
3FFE00
3FF800
3FE000
ENDCHAR
STARTCHAR dcroat
ENCODING 273
SWIDTH 606 0
DWIDTH 17 0
BBX 16 20 1 0
BITMAP
007F
007F
007F
007F
001E
0FDE
3FFE
7FFE
7FFE
F87E
F03E
F01E
E01E
F01E
F03E
F83E
7FFE
7FFE
3FF6
0FC6
ENDCHAR
STARTCHAR Emacron
ENCODING 274
SWIDTH 578 0
DWIDTH 16 0
BBX 13 24 2 0
BITMAP
1FC0
1FC0
1FC0
0000
FFF8
FFF8
FFF8
FFF8
F000
F000
F000
F000
FFC0
FFC0
FFC0
FFC0
F000
F000
F000
F000
FFF8
FFF8
FFF8
FFF8
ENDCHAR
STARTCHAR emacron
ENCODING 275
SWIDTH 524 0
DWIDTH 15 0
BBX 13 19 1 0
BITMAP
1FC0
1FC0
1FC0
0000
0FC0
3FF0
7FF8
7FF8
F8F0
F1E0
F3C0
E7C0
F780
FF20
FE30
7FF8
7FF8
3FF0
0FC0
ENDCHAR
STARTCHAR Ebreve
ENCODING 276
SWIDTH 578 0
DWIDTH 16 0
BBX 13 25 2 0
BITMAP
1D80
1DC0
0F80
0700
0000
FFF8
FFF8
FFF8
FFF8
F000
F000
F000
F000
FFC0
FFC0
FFC0
FFC0
F000
F000
F000
F000
FFF8
FFF8
FFF8
FFF8
ENDCHAR
STARTCHAR ebreve
ENCODING 277
SWIDTH 524 0
DWIDTH 15 0
BBX 13 20 1 0
BITMAP
0DC0
0FC0
0F80
0780
0000
0FC0
3FF0
7FF8
7FF8
F8F0
F1E0
F3C0
E7C0
F780
FF20
FE30
7FF8
7FF8
3FF0
0FC0
ENDCHAR
STARTCHAR Edotaccent
ENCODING 278
SWIDTH 578 0
DWIDTH 16 0
BBX 13 25 2 0
BITMAP
0200
0700
0700
0700
0000
FFF8
FFF8
FFF8
FFF8
F000
F000
F000
F000
FFC0
FFC0
FFC0
FFC0
F000
F000
F000
F000
FFF8
FFF8
FFF8
FFF8
ENDCHAR
STARTCHAR edotaccent
ENCODING 279
SWIDTH 524 0
DWIDTH 15 0
BBX 13 19 1 0
BITMAP
0780
0780
0300
0000
0FC0
3FF0
7FF8
7FF8
F8F0
F1E0
F3C0
E7C0
F780
FF20
FE30
7FF8
7FF8
3FF0
0FC0
ENDCHAR
STARTCHAR Eogonek
ENCODING 280
SWIDTH 578 0
DWIDTH 16 0
BBX 13 25 2 -5
BITMAP
FFF8
FFF8
FFF8
FFF8
F000
F000
F000
F000
FFC0
FFC0
FFC0
FFC0
F000
F000
F000
F000
FFF8
FFF8
FFF8
FFF8
00E0
01C0
01F0
00F8
0070
ENDCHAR
STARTCHAR eogonek
ENCODING 281
SWIDTH 524 0
DWIDTH 15 0
BBX 13 20 1 -5
BITMAP
0FC0
3FF0
7FF8
7FF8
F8F0
F1E0
F3C0
E7C0
F780
FF20
FE30
7FF8
7FF8
3FF0
0FC0
01C0
0180
03E0
01F0
00E0
ENDCHAR
STARTCHAR Ecaron
ENCODING 282
SWIDTH 578 0
DWIDTH 16 0
BBX 13 26 2 0
BITMAP
0880
1DC0
1FC0
0F80
0700
0000
FFF8
FFF8
FFF8
FFF8
F000
F000
F000
F000
FFC0
FFC0
FFC0
FFC0
F000
F000
F000
F000
FFF8
FFF8
FFF8
FFF8
ENDCHAR
STARTCHAR ecaron
ENCODING 283
SWIDTH 524 0
DWIDTH 15 0
BBX 13 22 1 0
BITMAP
0800
0CC0
0FC0
0780
0300
0000
0000
0FC0
3FF0
7FF8
7FF8
F8F0
F1E0
F3C0
E7C0
F780
FF20
FE30
7FF8
7FF8
3FF0
0FC0
ENDCHAR
STARTCHAR Gcircumflex
ENCODING 284
SWIDTH 665 0
DWIDTH 19 0
BBX 16 26 1 0
BITMAP
00C0
01F0
03F8
03B8
0110
0000
01F0
07FE
1FFF
3FFF
3F0E
7C02
F800
F000
F000
F000
F007
F007
F007
F807
7807
7C07
3FFF
1FFF
0FFF
03FC
ENDCHAR
STARTCHAR gcircumflex
ENCODING 285
SWIDTH 607 0
DWIDTH 17 0
BBX 15 27 1 -6
BITMAP
0300
0780
0FC0
0CC0
0040
0000
0FC2
3FF6
7FFE
7FFE
F87E
F03E
F01E
E01E
F01E
F03E
F83E
7FFE
7FFE
3FFE
0FDC
003C
007C
07F8
07F0
07E0
0700
ENDCHAR
STARTCHAR Gbreve
ENCODING 286
SWIDTH 665 0
DWIDTH 19 0
BBX 16 25 1 0
BITMAP
03B8
03B8
01F0
00E0
0000
01F0
07FE
1FFF
3FFF
3F0E
7C02
F800
F000
F000
F000
F007
F007
F007
F807
7807
7C07
3FFF
1FFF
0FFF
03FC
ENDCHAR
STARTCHAR gbreve
ENCODING 287
SWIDTH 607 0
DWIDTH 17 0
BBX 15 26 1 -6
BITMAP
0CC0
0FC0
0FC0
0780
0000
0FC2
3FF6
7FFE
7FFE
F87E
F03E
F01E
E01E
F01E
F03E
F83E
7FFE
7FFE
3FFE
0FDC
003C
007C
07F8
07F0
07E0
0700
ENDCHAR
STARTCHAR Gdotaccent
ENCODING 288
SWIDTH 665 0
DWIDTH 19 0
BBX 16 25 1 0
BITMAP
0040
00E0
00E0
00E0
0000
01F0
07FE
1FFF
3FFF
3F0E
7C02
F800
F000
F000
F000
F007
F007
F007
F807
7807
7C07
3FFF
1FFF
0FFF
03FC
ENDCHAR
STARTCHAR gdotaccent
ENCODING 289
SWIDTH 607 0
DWIDTH 17 0
BBX 15 25 1 -6
BITMAP
0780
0780
0300
0000
0FC2
3FF6
7FFE
7FFE
F87E
F03E
F01E
E01E
F01E
F03E
F83E
7FFE
7FFE
3FFE
0FDC
003C
007C
07F8
07F0
07E0
0700
ENDCHAR
STARTCHAR Gcommaaccent
ENCODING 290
SWIDTH 665 0
DWIDTH 19 0
BBX 16 27 1 -7
BITMAP
01F0
07FE
1FFF
3FFF
3F0E
7C02
F800
F000
F000
F000
F007
F007
F007
F807
7807
7C07
3FFF
1FFF
0FFF
03FC
0000
0040
00E0
00E0
00E0
0060
0040
ENDCHAR
STARTCHAR gcommaaccent
ENCODING 291
SWIDTH 607 0
DWIDTH 17 0
BBX 15 28 1 -6
BITMAP
0200
0300
0700
0780
0780
0300
0000
0FC2
3FF6
7FFE
7FFE
F87E
F03E
F01E
E01E
F01E
F03E
F83E
7FFE
7FFE
3FFE
0FDC
003C
007C
07F8
07F0
07E0
0700
ENDCHAR
STARTCHAR Hcircumflex
ENCODING 292
SWIDTH 689 0
DWIDTH 19 0
BBX 16 25 2 0
BITMAP
0180
07C0
0FE0
0EE0
0440
F00F
F00F
F00F
F00F
F00F
F00F
F00F
F00F
FFFF
FFFF
FFFF
FFFF
F00F
F00F
F00F
F00F
F00F
F00F
F00F
F00F
ENDCHAR
STARTCHAR hcircumflex
ENCODING 293
SWIDTH 562 0
DWIDTH 16 0
BBX 14 21 1 0
BITMAP
01C0
F3E0
F7F0
F770
F220
F000
F780
FFE0
FFF0
FFF8
F878
F038
F038
F03C
F03C
F03C
F03C
F03C
F03C
F03C
F03C
ENDCHAR
STARTCHAR Hbar
ENCODING 294
SWIDTH 689 0
DWIDTH 19 0
BBX 19 20 0 0
BITMAP
3C03C0
3C03C0
3C03C0
FFFFE0
FFFFE0
FFFFE0
FFFFE0
3C03C0
3FFFC0
3FFFC0
3FFFC0
3FFFC0
3C03C0
3C03C0
3C03C0
3C03C0
3C03C0
3C03C0
3C03C0
3C03C0
ENDCHAR
STARTCHAR hbar
ENCODING 295
SWIDTH 562 0
DWIDTH 16 0
BBX 15 20 0 0
BITMAP
FC00
FC00
FC00
FC00
7800
7BC0
7FF0
7FF8
7FFC
7C3C
781C
781C
781E
781E
781E
781E
781E
781E
781E
781E
ENDCHAR
STARTCHAR Itilde
ENCODING 296
SWIDTH 270 0
DWIDTH 8 0
BBX 9 25 -1 0
BITMAP
7980
FF80
FF80
E780
0000
1E00
1E00
1E00
1E00
1E00
1E00
1E00
1E00
1E00
1E00
1E00
1E00
1E00
1E00
1E00
1E00
1E00
1E00
1E00
1E00
ENDCHAR
STARTCHAR itilde
ENCODING 297
SWIDTH 235 0
DWIDTH 7 0
BBX 9 20 -1 0
BITMAP
FB80
FF80
FF80
EF00
0000
3C00
3C00
3C00
3C00
3C00
3C00
3C00
3C00
3C00
3C00
3C00
3C00
3C00
3C00
3C00
ENDCHAR
STARTCHAR Imacron
ENCODING 298
SWIDTH 270 0
DWIDTH 8 0
BBX 7 24 0 0
BITMAP
FE
FE
FE
00
3C
3C
3C
3C
3C
3C
3C
3C
3C
3C
3C
3C
3C
3C
3C
3C
3C
3C
3C
3C
ENDCHAR
STARTCHAR imacron
ENCODING 299
SWIDTH 235 0
DWIDTH 7 0
BBX 7 19 0 0
BITMAP
FE
FE
FE
00
78
78
78
78
78
78
78
78
78
78
78
78
78
78
78
ENDCHAR
STARTCHAR Ibreve
ENCODING 300
SWIDTH 270 0
DWIDTH 8 0
BBX 6 25 1 0
BITMAP
CC
FC
FC
78
00
78
78
78
78
78
78
78
78
78
78
78
78
78
78
78
78
78
78
78
78
ENDCHAR
STARTCHAR ibreve
ENCODING 301
SWIDTH 235 0
DWIDTH 7 0
BBX 6 20 0 0
BITMAP
EC
FC
7C
38
00
78
78
78
78
78
78
78
78
78
78
78
78
78
78
78
ENDCHAR
STARTCHAR Iogonek
ENCODING 302
SWIDTH 270 0
DWIDTH 8 0
BBX 6 25 1 -5
BITMAP
78
78
78
78
78
78
78
78
78
78
78
78
78
78
78
78
78
78
78
78
60
E0
F8
FC
78
ENDCHAR
STARTCHAR iogonek
ENCODING 303
SWIDTH 235 0
DWIDTH 7 0
BBX 6 26 1 -5
BITMAP
70
F8
F8
F8
70
00
F0
F0
F0
F0
F0
F0
F0
F0
F0
F0
F0
F0
F0
F0
F0
60
C0
F0
FC
70
ENDCHAR
STARTCHAR Idotaccent
ENCODING 304
SWIDTH 270 0
DWIDTH 8 0
BBX 4 24 2 0
BITMAP
E0
E0
60
00
F0
F0
F0
F0
F0
F0
F0
F0
F0
F0
F0
F0
F0
F0
F0
F0
F0
F0
F0
F0
ENDCHAR
STARTCHAR dotlessi
ENCODING 305
SWIDTH 235 0
DWIDTH 7 0
BBX 4 15 1 0
BITMAP
F0
F0
F0
F0
F0
F0
F0
F0
F0
F0
F0
F0
F0
F0
F0
ENDCHAR
STARTCHAR IJ
ENCODING 306
SWIDTH 687 0
DWIDTH 19 0
BBX 16 20 2 0
BITMAP
F00F
F00F
F00F
F00F
F00F
F00F
F00F
F00F
F00F
F00F
F00F
F00F
F00F
F01F
F01E
F03E
F3FC
F3FC
F3F0
F3E0
ENDCHAR
STARTCHAR ij
ENCODING 307
SWIDTH 474 0
DWIDTH 13 0
BBX 11 27 1 -6
BITMAP
71E0
F9E0
FBE0
F9E0
70C0
0000
F1E0
F1E0
F1E0
F1E0
F1E0
F1E0
F1E0
F1E0
F1E0
F1E0
F1E0
F1E0
F1E0
F1E0
F1E0
03C0
07C0
7F80
7F80
7E00
7000
ENDCHAR
STARTCHAR Jcircumflex
ENCODING 308
SWIDTH 416 0
DWIDTH 12 0
BBX 11 26 0 0
BITMAP
0180
03C0
07E0
0660
0020
0000
03C0
03C0
03C0
03C0
03C0
03C0
03C0
03C0
03C0
03C0
03C0
03C0
03C0
03C0
07C0
0F80
FF80
FF00
FE00
F800
ENDCHAR
STARTCHAR jcircumflex
ENCODING 309
SWIDTH 237 0
DWIDTH 7 0
BBX 11 26 -4 -6
BITMAP
0300
0780
0FE0
0EE0
0440
0780
0780
0780
0780
0780
0780
0780
0780
0780
0780
0780
0780
0780
0780
0780
0780
1F00
FF00
FE00
FC00
C000
ENDCHAR
STARTCHAR Kcommaaccent
ENCODING 310
SWIDTH 625 0
DWIDTH 18 0
BBX 15 27 2 -7
BITMAP
F01E
F03E
F07C
F078
F0F0
F1F0
F3E0
F3C0
F780
FFC0
FFC0
FFE0
FDE0
FCF0
F8F0
F078
F07C
F03C
F03E
F01E
0000
0200
0700
0780
0700
0300
0300
ENDCHAR
STARTCHAR kcommaaccent
ENCODING 311
SWIDTH 539 0
DWIDTH 15 0
BBX 14 27 1 -7
BITMAP
F000
F000
F000
F000
F000
F03C
F078
F0F0
F1F0
F3E0
F3C0
F780
FFC0
FFC0
FFE0
FDE0
F8F0
F8F8
F078
F07C
0000
0200
0700
0700
0700
0300
0200
ENDCHAR
STARTCHAR kgreenlandic
ENCODING 312
SWIDTH 539 0
DWIDTH 15 0
BBX 14 15 1 0
BITMAP
F03C
F078
F0F0
F1F0
F3E0
F3C0
F780
FFC0
FFC0
FFE0
FDE0
F8F0
F8F8
F078
F07C
ENDCHAR
STARTCHAR Lacute
ENCODING 313
SWIDTH 562 0
DWIDTH 16 0
BBX 14 24 2 0
BITMAP
0180
03C0
07C0
0F00
F600
F000
F000
F000
F000
F000
F000
F000
F000
F000
F000
F000
F000
F000
F000
F000
FFFC
FFFC
FFFC
FFFC
ENDCHAR
STARTCHAR lacute
ENCODING 314
SWIDTH 235 0
DWIDTH 7 0
BBX 8 27 1 0
BITMAP
06
1E
3F
3C
10
00
00
F0
F0
F0
F0
F0
F0
F0
F0
F0
F0
F0
F0
F0
F0
F0
F0
F0
F0
F0
F0
ENDCHAR
STARTCHAR Lcommaaccent
ENCODING 315
SWIDTH 562 0
DWIDTH 16 0
BBX 14 27 2 -7
BITMAP
F000
F000
F000
F000
F000
F000
F000
F000
F000
F000
F000
F000
F000
F000
F000
F000
FFFC
FFFC
FFFC
FFFC
0000
0600
0F00
0F00
0700
0600
0600
ENDCHAR
STARTCHAR lcommaaccent
ENCODING 316
SWIDTH 235 0
DWIDTH 7 0
BBX 4 27 1 -7
BITMAP
F0
F0
F0
F0
F0
F0
F0
F0
F0
F0
F0
F0
F0
F0
F0
F0
F0
F0
F0
F0
00
20
70
F0
70
30
60
ENDCHAR
STARTCHAR Lcaron
ENCODING 317
SWIDTH 562 0
DWIDTH 16 0
BBX 14 20 2 0
BITMAP
F100
F380
F780
F380
F180
F300
F000
F000
F000
F000
F000
F000
F000
F000
F000
F000
FFFC
FFFC
FFFC
FFFC
ENDCHAR
STARTCHAR lcaron
ENCODING 318
SWIDTH 369 0
DWIDTH 10 0
BBX 9 20 1 0
BITMAP
F100
F380
F380
F380
F180
F100
F000
F000
F000
F000
F000
F000
F000
F000
F000
F000
F000
F000
F000
F000
ENDCHAR
STARTCHAR Ldot
ENCODING 319
SWIDTH 745 0
DWIDTH 21 0
BBX 18 20 2 0
BITMAP
F00000
F00000
F00000
F00000
F00000
F00000
F00000
F00000
F00380
F00780
F007C0
F00780
F00000
F00000
F00000
F00000
FFFC00
FFFC00
FFFC00
FFFC00
ENDCHAR
STARTCHAR ldotaccent
ENCODING 320
SWIDTH 463 0
DWIDTH 13 0
BBX 11 20 1 0
BITMAP
F000
F000
F000
F000
F000
F000
F000
F000
F1C0
F3E0
F3E0
F3C0
F080
F000
F000
F000
F000
F000
F000
F000
ENDCHAR
STARTCHAR Lslash
ENCODING 321
SWIDTH 585 0
DWIDTH 16 0
BBX 16 20 0 0
BITMAP
3C00
3C00
3C00
3C00
3C00
3C00
3C80
3F80
3F80
3F80
FE00
FC00
FC00
FC00
3C00
3C00
3FFF
3FFF
3FFF
3FFF
ENDCHAR
STARTCHAR lslash
ENCODING 322
SWIDTH 319 0
DWIDTH 9 0
BBX 9 20 0 0
BITMAP
1C00
1C00
1C00
1C00
1C00
1C00
1C80
1F80
1F80
3F80
FE00
FC00
FC00
DC00
1C00
1C00
1C00
1C00
1C00
1C00
ENDCHAR
STARTCHAR Nacute
ENCODING 323
SWIDTH 689 0
DWIDTH 19 0
BBX 16 25 2 0
BITMAP
0060
00F0
01F0
03C0
0180
F00F
F80F
F80F
FC0F
FC0F
FE0F
FF0F
FF0F
F78F
F78F
F3CF
F3EF
F1EF
F1FF
F0FF
F07F
F07F
F03F
F03F
F01F
ENDCHAR
STARTCHAR nacute
ENCODING 324
SWIDTH 562 0
DWIDTH 16 0
BBX 14 22 1 0
BITMAP
0060
00F0
01F0
03C0
0180
0000
0000
8780
DFE0
FFF0
FFF8
F878
F038
F038
F03C
F03C
F03C
F03C
F03C
F03C
F03C
F03C
ENDCHAR
STARTCHAR Ncommaaccent
ENCODING 325
SWIDTH 689 0
DWIDTH 19 0
BBX 16 27 2 -7
BITMAP
F00F
F80F
F80F
FC0F
FC0F
FE0F
FF0F
FF0F
F78F
F78F
F3CF
F3EF
F1EF
F1FF
F0FF
F07F
F07F
F03F
F03F
F01F
0000
0100
0380
03C0
0380
0180
0180
ENDCHAR
STARTCHAR ncommaaccent
ENCODING 326
SWIDTH 562 0
DWIDTH 16 0
BBX 14 22 1 -7
BITMAP
8780
DFE0
FFF0
FFF8
F878
F038
F038
F03C
F03C
F03C
F03C
F03C
F03C
F03C
F03C
0000
0300
0780
0780
0380
0300
0300
ENDCHAR
STARTCHAR Ncaron
ENCODING 327
SWIDTH 689 0
DWIDTH 19 0
BBX 16 26 2 0
BITMAP
0440
0EE0
0FE0
07C0
0380
0000
F00F
F80F
F80F
FC0F
FC0F
FE0F
FF0F
FF0F
F78F
F78F
F3CF
F3EF
F1EF
F1FF
F0FF
F07F
F07F
F03F
F03F
F01F
ENDCHAR
STARTCHAR ncaron
ENCODING 328
SWIDTH 562 0
DWIDTH 16 0
BBX 14 22 1 0
BITMAP
0800
0CC0
1FC0
0780
0300
0000
0000
8780
DFE0
FFF0
FFF8
F878
F038
F038
F03C
F03C
F03C
F03C
F03C
F03C
F03C
F03C
ENDCHAR
STARTCHAR napostrophe
ENCODING 329
SWIDTH 694 0
DWIDTH 19 0
BBX 18 20 0 0
BITMAP
600000
F00000
F00000
700000
600000
647C00
06FF00
07FF80
07FF80
07C7C0
0783C0
0783C0
0783C0
0783C0
0783C0
0783C0
0783C0
0783C0
0783C0
0783C0
ENDCHAR
STARTCHAR Eng
ENCODING 330
SWIDTH 689 0
DWIDTH 19 0
BBX 16 26 2 -6
BITMAP
F00F
F80F
F80F
FC0F
FC0F
FE0F
FF0F
FF0F
F78F
F78F
F3CF
F3EF
F1EF
F1FF
F0FF
F07F
F07F
F03F
F03E
F01E
003E
027E
03FC
03F8
03F0
0380
ENDCHAR
STARTCHAR eng
ENCODING 331
SWIDTH 562 0
DWIDTH 16 0
BBX 14 21 1 -6
BITMAP
8780
DFE0
FFF0
FFF8
F878
F038
F038
F03C
F03C
F03C
F03C
F03C
F03C
F038
F078
0078
00F8
0FF0
0FE0
0FC0
0E00
ENDCHAR
STARTCHAR Omacron
ENCODING 332
SWIDTH 777 0
DWIDTH 22 0
BBX 20 24 1 0
BITMAP
03F800
03F800
03F800
000000
01F000
07FE00
1FFF00
3FFF80
3F0FC0
7C03E0
F801E0
F001F0
F000F0
F000F0
F000F0
F000F0
F000F0
F801E0
7803E0
7E07E0
3FFFC0
1FFF80
0FFF00
03FC00
ENDCHAR
STARTCHAR omacron
ENCODING 333
SWIDTH 579 0
DWIDTH 16 0
BBX 15 19 1 0
BITMAP
0FE0
0FE0
0FE0
0000
0FC0
3FF0
7FF8
7FFC
F83C
F03C
F01E
E01E
F01E
F03C
F83C
7FFC
7FF8
3FF0
0FC0
ENDCHAR
STARTCHAR Obreve
ENCODING 334
SWIDTH 777 0
DWIDTH 22 0
BBX 20 25 1 0
BITMAP
019800
01F800
01F800
00F000
000000
01F000
07FE00
1FFF00
3FFF80
3F0FC0
7C03E0
F801E0
F001F0
F000F0
F000F0
F000F0
F000F0
F000F0
F801E0
7803E0
7E07E0
3FFFC0
1FFF80
0FFF00
03FC00
ENDCHAR
STARTCHAR obreve
ENCODING 335
SWIDTH 579 0
DWIDTH 16 0
BBX 15 20 1 0
BITMAP
0EC0
0FC0
0FC0
0780
0000
0FC0
3FF0
7FF8
7FFC
F83C
F03C
F01E
E01E
F01E
F03C
F83C
7FFC
7FF8
3FF0
0FC0
ENDCHAR
STARTCHAR Ohungarumlaut
ENCODING 336
SWIDTH 777 0
DWIDTH 22 0
BBX 20 28 1 0
BITMAP
004000
00E600
01FF00
01EF00
03DE00
011C00
000800
000000
01F000
07FE00
1FFF00
3FFF80
3F0FC0
7C03E0
F801E0
F001F0
F000F0
F000F0
F000F0
F000F0
F000F0
F801E0
7803E0
7E07E0
3FFFC0
1FFF80
0FFF00
03FC00
ENDCHAR
STARTCHAR ohungarumlaut
ENCODING 337
SWIDTH 579 0
DWIDTH 16 0
BBX 15 22 1 0
BITMAP
0200
0710
07B8
0F78
1EF0
0CE0
0040
0FC0
3FF0
7FF8
7FFC
F83C
F03C
F01E
E01E
F01E
F03C
F83C
7FFC
7FF8
3FF0
0FC0
ENDCHAR
STARTCHAR OE
ENCODING 338
SWIDTH 1125 0
DWIDTH 32 0
BBX 30 20 1 0
BITMAP
01F0FFFC
07FEFFFC
1FFFFFFC
3FFFFFFC
3F0FF000
7C03F000
F801F000
F001F000
F000FFE0
F000FFE0
F000FFE0
F000FFE0
F000F000
F801F000
7803F000
7E07F000
3FFFFFFC
1FFFFFFC
0FFFFFFC
03FCFFFC
ENDCHAR
STARTCHAR oe
ENCODING 339
SWIDTH 924 0
DWIDTH 26 0
BBX 24 15 1 0
BITMAP
0FC1F8
3FF3FE
7FFFFF
7FFFFF
F83F1E
F03E3C
F01E7C
E01EF8
F01EF0
F03FE0
F83FC6
7FFFDF
7FFFFF
3FF7FE
0FC1FC
ENDCHAR
STARTCHAR Racute
ENCODING 340
SWIDTH 651 0
DWIDTH 18 0
BBX 15 27 2 0
BITMAP
0040
00C0
01E0
03E0
03C0
0300
0000
FF00
FFF0
FFF8
FFFC
F07E
F03E
F01E
F00E
F00E
F01E
F01E
F03E
FFFC
FFF8
FFF0
FFF0
F0F8
F078
F078
F03C
ENDCHAR
STARTCHAR racute
ENCODING 341
SWIDTH 414 0
DWIDTH 12 0
BBX 10 21 1 0
BITMAP
0380
0780
0FC0
0F00
0400
0000
83C0
DFC0
FFC0
FFC0
FC00
F800
F000
F000
F000
F000
F000
F000
F000
F000
F000
ENDCHAR
STARTCHAR Rcommaaccent
ENCODING 342
SWIDTH 651 0
DWIDTH 18 0
BBX 15 27 2 -7
BITMAP
FF00
FFF0
FFF8
FFFC
F07E
F03E
F01E
F00E
F00E
F01E
F01E
F03E
FFFC
FFF8
FFF0
FFF0
F0F8
F078
F078
F03C
0000
0300
0780
0780
0380
0180
0300
ENDCHAR
STARTCHAR rcommaaccent
ENCODING 343
SWIDTH 414 0
DWIDTH 12 0
BBX 10 22 1 -7
BITMAP
83C0
DFC0
FFC0
FFC0
FC00
F800
F000
F000
F000
F000
F000
F000
F000
F000
F000
0000
6000
F000
F000
7000
3000
6000
ENDCHAR
STARTCHAR Rcaron
ENCODING 344
SWIDTH 651 0
DWIDTH 18 0
BBX 15 25 2 0
BITMAP
0CC0
0FE0
0780
0300
0000
FF00
FFF0
FFF8
FFFC
F07E
F03E
F01E
F00E
F00E
F01E
F01E
F03E
FFFC
FFF8
FFF0
FFF0
F0F8
F078
F078
F03C
ENDCHAR
STARTCHAR rcaron
ENCODING 345
SWIDTH 414 0
DWIDTH 12 0
BBX 10 21 1 0
BITMAP
2000
3300
7F00
1E00
0C00
0000
83C0
DFC0
FFC0
FFC0
FC00
F800
F000
F000
F000
F000
F000
F000
F000
F000
F000
ENDCHAR
STARTCHAR Sacute
ENCODING 346
SWIDTH 610 0
DWIDTH 17 0
BBX 15 27 1 0
BITMAP
0020
0060
00F0
01F0
01E0
0180
0000
07FE
3FFE
7FFE
FFFE
F800
F000
F000
F000
FFE0
7FF8
7FFC
1FFE
003E
001E
001E
001E
7FFE
7FFC
7FF8
7FF0
ENDCHAR
STARTCHAR sacute
ENCODING 347
SWIDTH 523 0
DWIDTH 15 0
BBX 13 21 1 0
BITMAP
00C0
01E0
03E0
03C0
0300
0000
0FF0
3FF0
7FF0
FFF0
F000
F000
FFE0
7FF0
7FF8
0FF8
0078
FFF8
FFF8
FFF0
FFE0
ENDCHAR
STARTCHAR Scircumflex
ENCODING 348
SWIDTH 610 0
DWIDTH 17 0
BBX 15 26 1 0
BITMAP
0380
07C0
0FE0
0EE0
0440
0000
07FE
3FFE
7FFE
FFFE
F800
F000
F000
F000
FFE0
7FF8
7FFC
1FFE
003E
001E
001E
001E
7FFE
7FFC
7FF8
7FF0
ENDCHAR
STARTCHAR scircumflex
ENCODING 349
SWIDTH 523 0
DWIDTH 15 0
BBX 13 21 1 0
BITMAP
0600
0F00
1FC0
1DC0
0880
0000
0FF0
3FF0
7FF0
FFF0
F000
F000
FFE0
7FF0
7FF8
0FF8
0078
FFF8
FFF8
FFF0
FFE0
ENDCHAR
STARTCHAR Scedilla
ENCODING 350
SWIDTH 610 0
DWIDTH 17 0
BBX 15 26 1 -6
BITMAP
07FE
3FFE
7FFE
FFFE
F800
F000
F000
F000
FFE0
7FF8
7FFC
1FFE
003E
001E
001E
001E
7FFE
7FFC
7FF8
7FF0
0180
0180
03C0
04C0
07C0
07C0
ENDCHAR
STARTCHAR scedilla
ENCODING 351
SWIDTH 523 0
DWIDTH 15 0
BBX 13 21 1 -6
BITMAP
0FF0
3FF0
7FF0
FFF0
F000
F000
FFE0
7FF0
7FF8
0FF8
0078
FFF8
FFF8
FFF0
FFE0
0200
0700
0780
0980
0F80
0F00
ENDCHAR
STARTCHAR Scaron
ENCODING 352
SWIDTH 610 0
DWIDTH 17 0
BBX 15 26 1 0
BITMAP
0440
0EE0
0FE0
07C0
0380
0100
07FE
3FFE
7FFE
FFFE
F800
F000
F000
F000
FFE0
7FF8
7FFC
1FFE
003E
001E
001E
001E
7FFE
7FFC
7FF8
7FF0
ENDCHAR
STARTCHAR scaron
ENCODING 353
SWIDTH 523 0
DWIDTH 15 0
BBX 13 21 1 0
BITMAP
0880
1DC0
1FC0
0F80
0700
0000
0FF0
3FF0
7FF0
FFF0
F000
F000
FFE0
7FF0
7FF8
0FF8
0078
FFF8
FFF8
FFF0
FFE0
ENDCHAR
STARTCHAR Tcommaaccent
ENCODING 354
SWIDTH 578 0
DWIDTH 16 0
BBX 16 27 0 -7
BITMAP
FFFF
FFFF
FFFF
FFFF
03C0
03C0
03C0
03C0
03C0
03C0
03C0
03C0
03C0
03C0
03C0
03C0
03C0
03C0
03C0
03C0
0000
0180
03C0
03C0
01C0
00C0
0180
ENDCHAR
STARTCHAR tcommaaccent
ENCODING 355
SWIDTH 437 0
DWIDTH 12 0
BBX 12 27 0 -7
BITMAP
3C00
3C00
3C00
3C00
3C00
FFF0
FFF0
FFF0
FFF0
3C00
3C00
3C00
3C00
3C00
3C00
1E00
1FF0
0FF0
07F0
03F0
0000
0600
0F00
0F00
0700
0300
0600
ENDCHAR
STARTCHAR Tcaron
ENCODING 356
SWIDTH 578 0
DWIDTH 16 0
BBX 16 25 0 0
BITMAP
0660
07E0
03C0
0180
0000
FFFF
FFFF
FFFF
FFFF
03C0
03C0
03C0
03C0
03C0
03C0
03C0
03C0
03C0
03C0
03C0
03C0
03C0
03C0
03C0
03C0
ENDCHAR
STARTCHAR tcaron
ENCODING 357
SWIDTH 570 0
DWIDTH 16 0
BBX 16 20 0 0
BITMAP
3C06
3C0F
3C0F
3C07
3C03
FFF6
FFF0
FFF0
FFF0
3C00
3C00
3C00
3C00
3C00
3C00
1E00
1FF0
0FF0
07F0
03F0
ENDCHAR
STARTCHAR Tbar
ENCODING 358
SWIDTH 578 0
DWIDTH 16 0
BBX 16 20 0 0
BITMAP
FFFF
FFFF
FFFF
FFFF
03C0
03C0
03C0
03C0
03C0
03C0
0FF0
0FF0
0FF0
0FF0
03C0
03C0
03C0
03C0
03C0
03C0
ENDCHAR
STARTCHAR tbar
ENCODING 359
SWIDTH 437 0
DWIDTH 12 0
BBX 12 20 0 0
BITMAP
3C00
3C00
3C00
3C00
3C00
FFF0
FFF0
FFF0
FFF0
3C00
3C00
FF80
FF80
FF80
3C00
1E00
1FF0
0FF0
07F0
03F0
ENDCHAR
STARTCHAR Utilde
ENCODING 360
SWIDTH 673 0
DWIDTH 19 0
BBX 15 25 2 0
BITMAP
0F70
1FF0
1FF0
1CE0
0000
F01E
F01E
F01E
F01E
F01E
F01E
F01E
F01E
F01E
F01E
F01E
F01E
F01E
F01E
F01E
F87E
7FFC
3FF8
1FF0
07C0
ENDCHAR
STARTCHAR utilde
ENCODING 361
SWIDTH 562 0
DWIDTH 16 0
BBX 13 20 1 0
BITMAP
1E60
3FE0
3FE0
39E0
0000
F038
F038
F038
F038
F038
F038
F038
F038
F038
F078
F878
7FF8
7FF8
3FF8
0FC8
ENDCHAR
STARTCHAR Umacron
ENCODING 362
SWIDTH 673 0
DWIDTH 19 0
BBX 15 24 2 0
BITMAP
0FE0
0FE0
0FE0
0000
F01E
F01E
F01E
F01E
F01E
F01E
F01E
F01E
F01E
F01E
F01E
F01E
F01E
F01E
F01E
F87E
7FFC
3FF8
1FF0
07C0
ENDCHAR
STARTCHAR umacron
ENCODING 363
SWIDTH 562 0
DWIDTH 16 0
BBX 13 19 1 0
BITMAP
1FC0
1FC0
1FC0
0000
F038
F038
F038
F038
F038
F038
F038
F038
F038
F078
F878
7FF8
7FF8
3FF8
0FC8
ENDCHAR
STARTCHAR Ubreve
ENCODING 364
SWIDTH 673 0
DWIDTH 19 0
BBX 15 24 2 0
BITMAP
0EC0
0EE0
07C0
0380
F01E
F01E
F01E
F01E
F01E
F01E
F01E
F01E
F01E
F01E
F01E
F01E
F01E
F01E
F01E
F87E
7FFC
3FF8
1FF0
07C0
ENDCHAR
STARTCHAR ubreve
ENCODING 365
SWIDTH 562 0
DWIDTH 16 0
BBX 13 20 1 0
BITMAP
0DC0
0FC0
0FC0
0780
0000
F038
F038
F038
F038
F038
F038
F038
F038
F038
F078
F878
7FF8
7FF8
3FF8
0FC8
ENDCHAR
STARTCHAR Uring
ENCODING 366
SWIDTH 673 0
DWIDTH 19 0
BBX 15 26 2 0
BITMAP
0380
07C0
06C0
06C0
07C0
0100
F01E
F01E
F01E
F01E
F01E
F01E
F01E
F01E
F01E
F01E
F01E
F01E
F01E
F01E
F01E
F87E
7FFC
3FF8
1FF0
07C0
ENDCHAR
STARTCHAR uring
ENCODING 367
SWIDTH 562 0
DWIDTH 16 0
BBX 13 21 1 0
BITMAP
0300
0780
0CC0
0DC0
0780
0200
F038
F038
F038
F038
F038
F038
F038
F038
F038
F078
F878
7FF8
7FF8
3FF8
0FC8
ENDCHAR
STARTCHAR Uhungarumlaut
ENCODING 368
SWIDTH 673 0
DWIDTH 19 0
BBX 15 27 2 0
BITMAP
0200
0310
07BC
0F7C
1E78
0C60
0000
F01E
F01E
F01E
F01E
F01E
F01E
F01E
F01E
F01E
F01E
F01E
F01E
F01E
F01E
F01E
F87E
7FFC
3FF8
1FF0
07C0
ENDCHAR
STARTCHAR uhungarumlaut
ENCODING 369
SWIDTH 562 0
DWIDTH 16 0
BBX 13 22 1 0
BITMAP
0200
0730
0FB8
0F78
1EF0
08E0
0040
F038
F038
F038
F038
F038
F038
F038
F038
F038
F078
F878
7FF8
7FF8
3FF8
0FC8
ENDCHAR
STARTCHAR Uogonek
ENCODING 370
SWIDTH 673 0
DWIDTH 19 0
BBX 15 25 2 -5
BITMAP
F01E
F01E
F01E
F01E
F01E
F01E
F01E
F01E
F01E
F01E
F01E
F01E
F01E
F01E
F01E
F87E
7FFC
3FF8
1FF0
07C0
0700
0600
0F80
07C0
0380
ENDCHAR
STARTCHAR uogonek
ENCODING 371
SWIDTH 562 0
DWIDTH 16 0
BBX 16 20 1 -5
BITMAP
F038
F038
F038
F038
F038
F038
F038
F038
F038
F078
F878
7FF8
7FF8
3FF8
0FC8
0018
0030
003E
003F
001C
ENDCHAR
STARTCHAR Wcircumflex
ENCODING 372
SWIDTH 819 0
DWIDTH 23 0
BBX 19 26 2 0
BITMAP
00C000
01F000
03F800
03B800
011000
000000
F0E1E0
F0E1E0
F0E1E0
F0E1E0
F0E1E0
F0E1E0
F0E1E0
F0E1E0
F0E1E0
F0E1E0
F0E1E0
F0E1E0
F0E1E0
F0E1E0
F1E1E0
F1F1E0
FFFFE0
7FFFC0
7FFFC0
1F1F00
ENDCHAR
STARTCHAR wcircumflex
ENCODING 373
SWIDTH 756 0
DWIDTH 21 0
BBX 19 20 1 0
BITMAP
00E000
01F000
03F800
03B800
011000
F0E1E0
F0E1E0
F0E1E0
F0E1E0
F0E1E0
F0E1E0
F0E1E0
F0E1E0
F0E1E0
F0E1E0
F0F1E0
7FFBE0
7FFFC0
3FFF80
1FBF00
ENDCHAR
STARTCHAR Ycircumflex
ENCODING 374
SWIDTH 620 0
DWIDTH 17 0
BBX 16 25 1 0
BITMAP
0180
07C0
0FE0
0EE0
0440
F00F
F00F
F00F
F00F
F00F
F00F
F00F
F01E
F01E
783E
7FFC
3FFC
1FF0
07E0
03C0
03C0
03C0
03C0
03C0
03C0
ENDCHAR
STARTCHAR ycircumflex
ENCODING 375
SWIDTH 562 0
DWIDTH 16 0
BBX 13 26 1 -6
BITMAP
0300
0780
0FC0
0DC0
0800
F038
F038
F038
F038
F038
F038
F038
F038
F038
F078
F878
7FF8
7FF8
3FF8
0FF8
0078
01F8
0FF0
0FE0
0FC0
0E00
ENDCHAR
STARTCHAR Ydieresis
ENCODING 376
SWIDTH 620 0
DWIDTH 17 0
BBX 16 24 1 0
BITMAP
0E70
1EF0
0E70
0000
F00F
F00F
F00F
F00F
F00F
F00F
F00F
F01E
F01E
783E
7FFC
3FFC
1FF0
07E0
03C0
03C0
03C0
03C0
03C0
03C0
ENDCHAR
STARTCHAR Zacute
ENCODING 377
SWIDTH 586 0
DWIDTH 16 0
BBX 15 26 1 0
BITMAP
0060
00F0
01F0
03C0
0180
0000
FFFE
FFFC
FFFC
FFF8
00F8
01F0
01F0
03E0
03E0
07C0
0780
0F80
0F00
1F00
1E00
3E00
7FFE
7FFE
FFFE
FFFE
ENDCHAR
STARTCHAR zacute
ENCODING 378
SWIDTH 481 0
DWIDTH 14 0
BBX 12 21 1 0
BITMAP
01C0
03C0
07E0
0780
0200
0000
FFF0
FFE0
FFE0
FFC0
03C0
0780
0F00
0F00
1E00
1E00
3C00
3FF0
7FF0
FFF0
FFF0
ENDCHAR
STARTCHAR Zdotaccent
ENCODING 379
SWIDTH 586 0
DWIDTH 16 0
BBX 15 24 1 0
BITMAP
0380
0780
0300
0000
FFFE
FFFC
FFFC
FFF8
00F8
01F0
01F0
03E0
03E0
07C0
0780
0F80
0F00
1F00
1E00
3E00
7FFE
7FFE
FFFE
FFFE
ENDCHAR
STARTCHAR zdotaccent
ENCODING 380
SWIDTH 481 0
DWIDTH 14 0
BBX 12 19 1 0
BITMAP
0E00
0E00
0600
0000
FFF0
FFE0
FFE0
FFC0
03C0
0780
0F00
0F00
1E00
1E00
3C00
3FF0
7FF0
FFF0
FFF0
ENDCHAR
STARTCHAR Zcaron
ENCODING 381
SWIDTH 586 0
DWIDTH 16 0
BBX 15 25 1 0
BITMAP
0CC0
0FE0
07C0
0380
0100
FFFE
FFFC
FFFC
FFF8
00F8
01F0
01F0
03E0
03E0
07C0
0780
0F80
0F00
1F00
1E00
3E00
7FFE
7FFE
FFFE
FFFE
ENDCHAR
STARTCHAR zcaron
ENCODING 382
SWIDTH 481 0
DWIDTH 14 0
BBX 12 21 1 0
BITMAP
1000
1980
3F80
1F00
0600
0000
FFF0
FFE0
FFE0
FFC0
03C0
0780
0F00
0F00
1E00
1E00
3C00
3FF0
7FF0
FFF0
FFF0
ENDCHAR
STARTCHAR AEacute
ENCODING 508
SWIDTH 988 0
DWIDTH 28 0
BBX 25 26 2 0
BITMAP
00018000
0003C000
0007C000
000F0000
00060000
00000000
03FFFF80
1FFFFF80
3FFFFF80
7FFFFF80
7E1E0000
F81E0000
F01E0000
F01E0000
F01FFC00
F01FFC00
F01FFC00
F01FFC00
FFFE0000
FFFE0000
FFFE0000
FFFE0000
F01FFF80
F01FFF80
F01FFF80
F01FFF80
ENDCHAR
STARTCHAR aeacute
ENCODING 509
SWIDTH 976 0
DWIDTH 27 0
BBX 26 21 1 0
BITMAP
00018000
0003C000
0007C000
00078000
00060000
00000000
0FC2FE00
3FF7FF00
7FFFFFC0
7FFFFF80
F87F8F80
F03F9F00
F01F1E00
E01F3C00
F01F7800
F03FF000
F83FF300
7FFFEF80
7FFFFFC0
3FF7FF80
0FC6FE00
ENDCHAR
STARTCHAR Oslashacute
ENCODING 510
SWIDTH 777 0
DWIDTH 22 0
BBX 20 27 1 0
BITMAP
000800
001800
003C00
007C00
007800
006000
000000
01F1E0
07FFC0
1FFF80
3FFF80
3F0FC0
7C1FE0
F81DE0
F03DF0
F078F0
F070F0
F0F0F0
F1E0F0
F3C0F0
FB81E0
7F83E0
7F07E0
3FFFC0
1FFF80
3FFF00
7BFC00
ENDCHAR
STARTCHAR oslashacute
ENCODING 511
SWIDTH 579 0
DWIDTH 16 0
BBX 15 22 1 0
BITMAP
0060
00F0
01F0
03C0
0180
0000
0000
0FDC
3FFC
7FF8
7FFC
F8FC
F1FC
F3DE
E79E
E71E
FF3C
FE3C
7FFC
7FF8
7FF0
FFC0
ENDCHAR
STARTCHAR dotlessj
ENCODING 567
SWIDTH 237 0
DWIDTH 7 0
BBX 9 21 -4 -6
BITMAP
0780
0780
0780
0780
0780
0780
0780
0780
0780
0780
0780
0780
0780
0780
0780
0780
1F00
FF00
FE00
FC00
C000
ENDCHAR
STARTCHAR circumflex
ENCODING 710
SWIDTH 267 0
DWIDTH 7 0
BBX 7 5 0 14
BITMAP
18
3C
7E
EE
44
ENDCHAR
STARTCHAR caron
ENCODING 711
SWIDTH 267 0
DWIDTH 7 0
BBX 7 5 0 15
BITMAP
40
66
FE
7C
18
ENDCHAR
STARTCHAR breve
ENCODING 728
SWIDTH 220 0
DWIDTH 6 0
BBX 6 4 0 15
BITMAP
EC
FC
FC
78
ENDCHAR
STARTCHAR dotaccent
ENCODING 729
SWIDTH 125 0
DWIDTH 4 0
BBX 3 3 0 15
BITMAP
E0
E0
60
ENDCHAR
STARTCHAR ring
ENCODING 730
SWIDTH 192 0
DWIDTH 5 0
BBX 5 6 0 14
BITMAP
70
F8
D8
D8
78
20
ENDCHAR
STARTCHAR ogonek
ENCODING 731
SWIDTH 212 0
DWIDTH 6 0
BBX 6 6 0 -5
BITMAP
30
60
E0
F8
FC
78
ENDCHAR
STARTCHAR tilde
ENCODING 732
SWIDTH 321 0
DWIDTH 9 0
BBX 9 4 0 15
BITMAP
7B80
FF80
FF80
E700
ENDCHAR
STARTCHAR hungarumlaut
ENCODING 733
SWIDTH 384 0
DWIDTH 11 0
BBX 10 7 0 14
BITMAP
1000
3980
7DC0
7BC0
F780
6700
0200
ENDCHAR
STARTCHAR uni0312
ENCODING 786
SWIDTH 192 0
DWIDTH 5 0
BBX 4 6 1 15
BITMAP
40
C0
C0
E0
F0
E0
ENDCHAR
STARTCHAR uni0315
ENCODING 789
SWIDTH 132 0
DWIDTH 4 0
BBX 4 6 0 14
BITMAP
60
F0
F0
70
60
60
ENDCHAR
STARTCHAR uni0326
ENCODING 806
SWIDTH 193 0
DWIDTH 5 0
BBX 4 6 1 -7
BITMAP
40
E0
F0
E0
60
60
ENDCHAR
STARTCHAR pi
ENCODING 960
SWIDTH 555 0
DWIDTH 16 0
BBX 15 15 0 0
BITMAP
FFFE
FFFE
FFFE
FFFE
1E78
1E78
1E78
1E78
1E78
1E78
1E78
1E78
1E78
1E78
1E78
ENDCHAR
STARTCHAR Wgrave
ENCODING 7808
SWIDTH 819 0
DWIDTH 23 0
BBX 19 27 2 0
BITMAP
020000
030000
078000
07C000
03C000
00C000
000000
F0E1E0
F0E1E0
F0E1E0
F0E1E0
F0E1E0
F0E1E0
F0E1E0
F0E1E0
F0E1E0
F0E1E0
F0E1E0
F0E1E0
F0E1E0
F0E1E0
F1E1E0
F1F1E0
FFFFE0
7FFFC0
7FFFC0
1F1F00
ENDCHAR
STARTCHAR wgrave
ENCODING 7809
SWIDTH 756 0
DWIDTH 21 0
BBX 19 21 1 0
BITMAP
060000
078000
0FC000
03C000
008000
000000
F0E1E0
F0E1E0
F0E1E0
F0E1E0
F0E1E0
F0E1E0
F0E1E0
F0E1E0
F0E1E0
F0E1E0
F0F1E0
7FFBE0
7FFFC0
3FFF80
1FBF00
ENDCHAR
STARTCHAR Wacute
ENCODING 7810
SWIDTH 819 0
DWIDTH 23 0
BBX 19 26 2 0
BITMAP
001800
003C00
007C00
007800
006000
000000
F0E1E0
F0E1E0
F0E1E0
F0E1E0
F0E1E0
F0E1E0
F0E1E0
F0E1E0
F0E1E0
F0E1E0
F0E1E0
F0E1E0
F0E1E0
F0E1E0
F1E1E0
F1F1E0
FFFFE0
7FFFC0
7FFFC0
1F1F00
ENDCHAR
STARTCHAR wacute
ENCODING 7811
SWIDTH 756 0
DWIDTH 21 0
BBX 19 21 1 0
BITMAP
000C00
001C00
007E00
007800
002000
000000
F0E1E0
F0E1E0
F0E1E0
F0E1E0
F0E1E0
F0E1E0
F0E1E0
F0E1E0
F0E1E0
F0E1E0
F0F1E0
7FFBE0
7FFFC0
3FFF80
1FBF00
ENDCHAR
STARTCHAR Wdieresis
ENCODING 7812
SWIDTH 819 0
DWIDTH 23 0
BBX 19 24 2 0
BITMAP
031800
07BC00
031800
000000
F0E1E0
F0E1E0
F0E1E0
F0E1E0
F0E1E0
F0E1E0
F0E1E0
F0E1E0
F0E1E0
F0E1E0
F0E1E0
F0E1E0
F0E1E0
F0E1E0
F1E1E0
F1F1E0
FFFFE0
7FFFC0
7FFFC0
1F1F00
ENDCHAR
STARTCHAR wdieresis
ENCODING 7813
SWIDTH 756 0
DWIDTH 21 0
BBX 19 19 1 0
BITMAP
039C00
07BC00
039800
000000
F0E1E0
F0E1E0
F0E1E0
F0E1E0
F0E1E0
F0E1E0
F0E1E0
F0E1E0
F0E1E0
F0E1E0
F0F1E0
7FFBE0
7FFFC0
3FFF80
1FBF00
ENDCHAR
STARTCHAR Ygrave
ENCODING 7922
SWIDTH 620 0
DWIDTH 17 0
BBX 16 26 1 0
BITMAP
1800
3C00
3E00
0F00
0600
0000
F00F
F00F
F00F
F00F
F00F
F00F
F00F
F01E
F01E
783E
7FFC
3FFC
1FF0
07E0
03C0
03C0
03C0
03C0
03C0
03C0
ENDCHAR
STARTCHAR ygrave
ENCODING 7923
SWIDTH 562 0
DWIDTH 16 0
BBX 13 27 1 -6
BITMAP
3000
3800
7C00
1E00
0400
0000
F038
F038
F038
F038
F038
F038
F038
F038
F038
F078
F878
7FF8
7FF8
3FF8
0FF8
0078
01F8
0FF0
0FE0
0FC0
0E00
ENDCHAR
STARTCHAR endash
ENCODING 8211
SWIDTH 418 0
DWIDTH 12 0
BBX 8 4 2 8
BITMAP
FF
FF
FF
FF
ENDCHAR
STARTCHAR emdash
ENCODING 8212
SWIDTH 719 0
DWIDTH 20 0
BBX 16 4 2 8
BITMAP
FFFF
FFFF
FFFF
FFFF
ENDCHAR
STARTCHAR quoteleft
ENCODING 8216
SWIDTH 246 0
DWIDTH 7 0
BBX 5 8 1 12
BITMAP
20
70
60
F0
F8
F8
F8
20
ENDCHAR
STARTCHAR quoteright
ENCODING 8217
SWIDTH 245 0
DWIDTH 7 0
BBX 5 8 1 12
BITMAP
20
F0
F8
F8
70
30
70
20
ENDCHAR
STARTCHAR quotesinglbase
ENCODING 8218
SWIDTH 264 0
DWIDTH 7 0
BBX 5 7 1 -3
BITMAP
30
78
F8
78
78
30
70
ENDCHAR
STARTCHAR quotedblleft
ENCODING 8220
SWIDTH 445 0
DWIDTH 12 0
BBX 10 8 1 12
BITMAP
2000
7180
6380
F3C0
FBC0
FBC0
FBC0
2180
ENDCHAR
STARTCHAR quotedblright
ENCODING 8221
SWIDTH 444 0
DWIDTH 12 0
BBX 10 8 1 12
BITMAP
2180
F3C0
FBC0
FBC0
73C0
31C0
7180
2000
ENDCHAR
STARTCHAR quotedblbase
ENCODING 8222
SWIDTH 463 0
DWIDTH 13 0
BBX 11 8 1 -4
BITMAP
3180
7BC0
FBE0
7BE0
79C0
30C0
71C0
0080
ENDCHAR
STARTCHAR dagger
ENCODING 8224
SWIDTH 434 0
DWIDTH 12 0
BBX 10 25 1 -3
BITMAP
1E00
1E00
1E00
1E00
1E00
FFC0
FFC0
FFC0
1E00
1E00
1E00
1E00
1E00
1E00
1E00
1E00
1E00
1E00
1E00
1E00
1E00
1E00
1E00
1E00
1E00
ENDCHAR
STARTCHAR daggerdbl
ENCODING 8225
SWIDTH 452 0
DWIDTH 13 0
BBX 11 25 1 -3
BITMAP
1E00
1E00
1E00
1E00
1E00
FFE0
FFE0
FFE0
1E00
1E00
1E00
1E00
1E00
1E00
1E00
1E00
FFE0
FFE0
FFE0
FFE0
1E00
1E00
1E00
1E00
1E00
ENDCHAR
STARTCHAR bullet
ENCODING 8226
SWIDTH 354 0
DWIDTH 10 0
BBX 6 6 2 7
BITMAP
78
FC
FC
FC
78
30
ENDCHAR
STARTCHAR ellipsis
ENCODING 8230
SWIDTH 789 0
DWIDTH 22 0
BBX 20 5 1 -1
BITMAP
3060C0
78F1E0
F8F1F0
78F1F0
7060E0
ENDCHAR
STARTCHAR perthousand
ENCODING 8240
SWIDTH 998 0
DWIDTH 28 0
BBX 26 20 1 0
BITMAP
3C070000
7E0E0000
FF1C0000
E71C0000
E7380000
E7380000
E7700000
FF700000
7EE00000
3CE00000
01CC0600
01FF1F80
03BF9F80
0733B9C0
0771B9C0
0E71B9C0
0E71B9C0
1C3BB9C0
1C3F9F80
381F0F00
ENDCHAR
STARTCHAR guilsinglleft
ENCODING 8249
SWIDTH 403 0
DWIDTH 11 0
BBX 9 13 1 1
BITMAP
0200
0780
0F80
1F00
3E00
7C00
F800
F800
7C00
3E00
1F00
0F80
0700
ENDCHAR
STARTCHAR guilsinglright
ENCODING 8250
SWIDTH 402 0
DWIDTH 11 0
BBX 9 14 1 0
BITMAP
2000
7000
7800
3C00
3E00
1F00
0F80
0F80
1F00
3E00
7C00
F800
7000
2000
ENDCHAR
STARTCHAR fraction
ENCODING 8260
SWIDTH 477 0
DWIDTH 13 0
BBX 13 20 0 0
BITMAP
0018
0038
0070
0070
00E0
00E0
01C0
01C0
0380
0380
0700
0E00
0E00
1C00
1C00
3800
3800
7000
7000
E000
ENDCHAR
STARTCHAR Euro
ENCODING 8364
SWIDTH 806 0
DWIDTH 23 0
BBX 20 20 1 0
BITMAP
001F00
007FE0
01FFF0
03FFF0
07F0E0
07C020
3FF800
7FF800
7FF800
7FF000
0F0000
7FF000
FFF000
FFF000
078000
07C060
03FFE0
01FFF0
00FFF0
003FC0
ENDCHAR
STARTCHAR trademark
ENCODING 8482
SWIDTH 606 0
DWIDTH 17 0
BBX 13 7 2 13
BITMAP
F9B0
FBF8
2348
2348
2348
2348
2348
ENDCHAR
STARTCHAR partialdiff
ENCODING 8706
SWIDTH 609 0
DWIDTH 17 0
BBX 15 21 1 0
BITMAP
03C0
03E0
01E0
01F0
00F0
0078
07F8
1FFC
3FFC
7FFC
783C
F01E
F01E
F01E
F01E
F01E
783C
7EFC
3FF8
1FF0
0FE0
ENDCHAR
STARTCHAR product
ENCODING 8719
SWIDTH 632 0
DWIDTH 18 0
BBX 16 20 1 0
BITMAP
FFFF
FFFF
FFFF
FFFF
1C78
1C78
1C78
1C78
1C78
1C78
1C78
1C78
1C78
1C78
1C78
1C78
1C78
1C78
1C78
1C78
ENDCHAR
STARTCHAR minus
ENCODING 8722
SWIDTH 543 0
DWIDTH 15 0
BBX 11 4 2 8
BITMAP
FFE0
FFE0
FFE0
FFE0
ENDCHAR
STARTCHAR infinity
ENCODING 8734
SWIDTH 771 0
DWIDTH 22 0
BBX 19 13 1 3
BITMAP
040000
1F9F80
3FFFC0
7FFFE0
FBFBE0
F1F1E0
F0F0E0
F0F0E0
F8F9E0
7FFFE0
7FFFC0
3FBFC0
0F0F00
ENDCHAR
STARTCHAR approxequal
ENCODING 8776
SWIDTH 476 0
DWIDTH 13 0
BBX 10 11 2 4
BITMAP
F9C0
FFC0
FFC0
EF80
E300
0000
F9C0
FFC0
FFC0
EF80
E300
ENDCHAR
STARTCHAR notequal
ENCODING 8800
SWIDTH 512 0
DWIDTH 14 0
BBX 12 17 1 1
BITMAP
01E0
01E0
01C0
FFF0
FFF0
FFF0
FFF0
0700
0F00
FFF0
FFF0
FFF0
FFF0
3C00
3C00
3800
7800
ENDCHAR
STARTCHAR fi
ENCODING 64257
SWIDTH 650 0
DWIDTH 18 0
BBX 16 22 1 0
BITMAP
03E0
0FEF
1FEF
3FFF
3C0F
3806
7800
FFFF
FFFF
FFFF
FFFF
780F
780F
780F
780F
780F
780F
780F
780F
780F
780F
780F
ENDCHAR
STARTCHAR fl
ENCODING 64258
SWIDTH 631 0
DWIDTH 18 0
BBX 15 22 1 0
BITMAP
03FE
0FFE
1FFE
3FFE
3C0E
380E
780E
FFCE
FFCE
FFCE
FFCE
780E
780E
780E
780E
780E
780E
780E
780E
780E
780E
780E
ENDCHAR
STARTCHAR .notdef
ENCODING -1
SWIDTH 279 0
DWIDTH 8 0
BBX 1 1 0 0
BITMAP
00
ENDCHAR
STARTCHAR .null
ENCODING -1
SWIDTH 0 0
DWIDTH 0 0
BBX 1 1 0 0
BITMAP
00
ENDCHAR
STARTCHAR nonmarkingreturn
ENCODING -1
SWIDTH 279 0
DWIDTH 8 0
BBX 1 1 0 0
BITMAP
00
ENDCHAR
ENDFONT
